<svg height="200" viewBox="0 0 232 234" fill="none" xmlns="http://www.w3.org/2000/svg">
<path d="M1 220.901H231.015" stroke="#263238" stroke-linecap="round" stroke-linejoin="round"/>
<path d="M183.494 40.5119C188.867 39.6004 194.39 40.5357 199.163 43.1656C203.936 45.7954 207.677 49.9646 209.777 54.9934C211.877 60.0222 212.211 65.614 210.725 70.8572C209.24 76.1004 206.022 80.6856 201.596 83.8654" stroke="#263238" stroke-linecap="round" stroke-linejoin="round"/>
<path d="M173.438 44.7117C175.676 43.0983 178.174 41.8812 180.824 41.1134" stroke="#263238" stroke-linecap="round" stroke-linejoin="round"/>
<path d="M175.859 85.3585C172.608 83.5574 169.818 81.0289 167.706 77.9705C165.595 74.9121 164.219 71.4068 163.686 67.7286C163.154 64.0503 163.48 60.2988 164.638 56.7672C165.796 53.2356 167.755 50.0197 170.362 47.3708" stroke="#263238" stroke-linecap="round" stroke-linejoin="round"/>
<path d="M174.704 92.9666L173.264 94.2381L175.506 86.572" stroke="#263238" stroke-linecap="round" stroke-linejoin="round"/>
<path d="M191.582 88.0493C188.035 88.6606 184.396 88.464 180.935 87.4742L176.392 91.484" stroke="#263238" stroke-linecap="round" stroke-linejoin="round"/>
<path d="M197.111 86.4084C196.213 86.7947 195.291 87.126 194.352 87.4004" stroke="#263238" stroke-linecap="round" stroke-linejoin="round"/>
<path d="M189.704 52.5519C192.692 53.0628 195.381 54.6738 197.241 57.0678C199.102 59.4618 199.998 62.4654 199.755 65.4874C199.512 68.5094 198.146 71.3308 195.927 73.3964C193.707 75.4619 190.795 76.6218 187.763 76.6479C184.732 76.674 181.8 75.5643 179.546 73.5372C177.291 71.5102 175.877 68.7126 175.582 65.6953C175.287 62.6779 176.131 59.6593 177.95 57.2337C179.769 54.808 182.43 53.151 185.409 52.5889" stroke="#263238" stroke-linecap="round" stroke-linejoin="round"/>
<path d="M185.414 77.761C181.9 77.1623 178.768 75.1924 176.706 72.2846C174.644 69.3767 173.821 65.7689 174.419 62.2546" stroke="#263238" stroke-linecap="round" stroke-linejoin="round"/>
<path d="M200.314 69.0555C199.486 71.3438 198.054 73.3648 196.169 74.9034C194.284 76.442 192.016 77.4405 189.609 77.7926" stroke="#263238" stroke-linecap="round" stroke-linejoin="round"/>
<path d="M175.453 58.9043C176.816 55.9436 179.207 53.5787 182.183 52.2496C185.159 50.9205 188.516 50.7177 191.631 51.679C194.745 52.6403 197.404 54.7002 199.113 57.4754C200.821 60.2506 201.464 63.5521 200.921 66.7656" stroke="#263238" stroke-linecap="round" stroke-linejoin="round"/>
<path d="M195.734 59.6693L195.893 59.5005" stroke="#263238" stroke-width="2" stroke-linecap="round" stroke-linejoin="round"/>
<path d="M193.582 61.9908L194.658 60.8353" stroke="#263238" stroke-width="2" stroke-linecap="round" stroke-linejoin="round"/>
<path d="M180.444 63.6897L185.62 70.5697L192.643 63.0038" stroke="#263238" stroke-width="2" stroke-linecap="round" stroke-linejoin="round"/>
<path d="M204.44 176.503H142.193V220.901H204.44V176.503Z" fill="#999999"/>
<mask id="mask0_18_1459" style="mask-type:luminance" maskUnits="userSpaceOnUse" x="142" y="176" width="63" height="45">
<path d="M204.44 176.503H142.193V220.901H204.44V176.503Z" fill="white"/>
</mask>
<g mask="url(#mask0_18_1459)">
<path opacity="0.3" d="M142.193 220.906H174.451V195.549L204.445 194.251V192.637H142.193V220.906Z" fill="black" fill-opacity="0.7"/>
</g>
<path d="M204.44 176.503H142.193V220.901H204.44V176.503Z" stroke="#263238" stroke-linecap="round" stroke-linejoin="round"/>
<path d="M205.922 175.869H140.715V192.494H205.922V175.869Z" fill="#999999"/>
<mask id="mask1_18_1459" style="mask-type:luminance" maskUnits="userSpaceOnUse" x="140" y="175" width="66" height="18">
<path d="M205.922 175.869H140.715V192.494H205.922V175.869Z" fill="white"/>
</mask>
<g mask="url(#mask1_18_1459)">
<path opacity="0.3" d="M175.284 175.869H140.715V192.494H175.284V175.869Z" fill="black" fill-opacity="0.7"/>
</g>
<path d="M205.922 175.869H140.715V192.494H205.922V175.869Z" stroke="#263238" stroke-linecap="round" stroke-linejoin="round"/>
<path d="M175.284 188.173V190.489" stroke="#263238" stroke-linecap="round" stroke-linejoin="round"/>
<path d="M175.284 183.572V186.142" stroke="#263238" stroke-linecap="round" stroke-linejoin="round"/>
<path d="M175.284 175.869V181.736" stroke="#263238" stroke-linecap="round" stroke-linejoin="round"/>
<path d="M174.451 218.041V219.001" stroke="#263238" stroke-linecap="round" stroke-linejoin="round"/>
<path d="M174.451 203.848V215.957" stroke="#263238" stroke-linecap="round" stroke-linejoin="round"/>
<path d="M174.451 192.631V199.569" stroke="#263238" stroke-linecap="round" stroke-linejoin="round"/>
<path d="M194.452 188.959H191.324V197.243H194.452V188.959Z" fill="#BFBFBF" stroke="#263238" stroke-linecap="round" stroke-linejoin="round"/>
<path d="M148.725 120.233C145.401 121.616 130.654 123.225 130.654 123.225C132.984 118.119 135.826 113.263 139.138 108.731L134.796 105.83C134.796 105.83 123.326 118.17 120.503 126.865C120.503 126.865 119.659 130.796 120.218 131.355C120.777 131.914 125.494 133.656 134.405 134.315C143.317 134.975 149.706 135.138 149.706 135.138" fill="white"/>
<path d="M148.725 120.233C145.401 121.616 130.654 123.225 130.654 123.225C132.984 118.119 135.826 113.263 139.138 108.731L134.796 105.83C134.796 105.83 123.326 118.17 120.503 126.865C120.503 126.865 119.659 130.796 120.218 131.355C120.777 131.914 125.494 133.656 134.405 134.315C143.317 134.975 149.706 135.138 149.706 135.138" stroke="#263238" stroke-linecap="round" stroke-linejoin="round"/>
<path d="M131.736 108.394C131.736 108.394 135.128 111.675 137.84 111.507L139.95 108.188C139.95 108.188 146.72 104.817 145.944 103.128C145.169 101.44 144.477 102.601 144.477 102.601L147.474 100.58C147.474 100.58 143.723 98.3481 142.926 98.3534C142.129 98.3587 140.093 97.9735 138.737 98.5328C137.381 99.0921 134.907 105.065 134.907 105.065L131.736 108.394Z" fill="#1BBA96" stroke="#263238" stroke-linecap="round" stroke-linejoin="round"/>
<path d="M139.228 107.117C139.228 107.117 140.684 106.547 141.159 105.534C141.634 104.521 141.159 102.611 141.159 102.611" fill="#1BBA96"/>
<path d="M139.228 107.117C139.228 107.117 140.684 106.547 141.159 105.534C141.634 104.521 141.159 102.611 141.159 102.611" stroke="#263238" stroke-linecap="round" stroke-linejoin="round"/>
<path d="M140.552 101.435C140.839 101.845 141.271 102.131 141.761 102.235C142.25 102.339 142.761 102.253 143.19 101.994" fill="#1BBA96"/>
<path d="M140.552 101.435C140.839 101.845 141.271 102.131 141.761 102.235C142.25 102.339 142.761 102.253 143.19 101.994" stroke="#263238" stroke-linecap="round" stroke-linejoin="round"/>
<path d="M141.649 100.569C142.623 101.189 143.56 101.864 144.456 102.59Z" fill="#1BBA96"/>
<path d="M141.649 100.569C142.623 101.189 143.56 101.864 144.456 102.59" stroke="#263238" stroke-linecap="round" stroke-linejoin="round"/>
<path d="M145.754 101.714L143.549 99.8887Z" fill="#1BBA96"/>
<path d="M145.754 101.714L143.549 99.8887" stroke="#263238" stroke-linecap="round" stroke-linejoin="round"/>
<path d="M130.643 123.225C130.545 125.341 129.939 127.402 128.876 129.234" stroke="#263238" stroke-linecap="round" stroke-linejoin="round"/>
<path d="M156.465 118.35C156.465 118.35 145.385 119.331 143.306 120.582C141.227 121.832 136.484 122.302 136.484 122.302C136.484 122.302 138.594 128.248 136.484 134.463L138.431 136.162C138.431 136.162 142.05 135.819 142.884 136.162C143.718 136.505 152.328 139.006 152.328 139.006" fill="#1BBA96"/>
<mask id="mask2_18_1459" style="mask-type:luminance" maskUnits="userSpaceOnUse" x="136" y="118" width="21" height="22">
<path d="M156.465 118.35C156.465 118.35 145.385 119.331 143.306 120.582C141.227 121.832 136.484 122.302 136.484 122.302C136.484 122.302 138.594 128.248 136.484 134.463L138.431 136.162C138.431 136.162 142.05 135.819 142.884 136.162C143.718 136.505 152.328 139.006 152.328 139.006" fill="white"/>
</mask>
<g mask="url(#mask2_18_1459)">
<path opacity="0.2" d="M148.809 137.977C146.329 137.243 143.359 136.357 142.884 136.162C142.05 135.819 138.431 136.162 138.431 136.162L137.339 135.207C138.922 132.875 139.866 129.931 140.504 129.931C140.847 129.931 141.591 130.886 142.288 131.967C141.76 128.617 142.947 124.196 143.538 127.957C143.976 130.722 146.614 134.917 148.809 137.977Z" fill="black"/>
</g>
<path d="M156.465 118.35C156.465 118.35 145.385 119.331 143.306 120.582C141.227 121.832 136.484 122.302 136.484 122.302C136.484 122.302 138.594 128.248 136.484 134.463L138.431 136.162C138.431 136.162 142.05 135.819 142.884 136.162C143.718 136.505 152.328 139.006 152.328 139.006" stroke="#263238" stroke-linecap="round" stroke-linejoin="round"/>
<path d="M147.912 204.36C147.912 204.36 152.027 216.326 151.848 220.083C151.848 220.083 145.147 221.755 141.728 221.338C138.31 220.922 131.493 221.47 127.874 221.402C124.254 221.333 123.837 220.5 123.837 220.5C123.837 220.5 123.558 218.97 125.948 217.582C128.338 216.194 137.914 215.471 138.748 208.528C139.581 201.585 147.912 204.36 147.912 204.36Z" fill="#BFBFBF" stroke="#263238" stroke-linecap="round" stroke-linejoin="round"/>
<path d="M196.689 159.276C196.689 159.276 200.324 169.116 198.304 175.347C196.283 181.578 181.821 186.184 178.608 186.184C175.395 186.184 149.701 179.758 149.701 179.758L148.413 181.167L144.456 179.557L150.687 208.28C150.687 208.28 153.7 209.889 150.687 210.892C147.675 211.894 136.226 211.9 136.025 210.892C135.916 210.025 135.916 209.147 136.025 208.28L134.326 205.067C134.326 205.067 134.637 199.443 134.326 198.641C134.015 197.839 121.162 171.11 126.565 164.684C131.968 158.258 164.025 163.476 164.025 163.476L168.114 159.255L196.689 159.276Z" fill="#263238"/>
<mask id="mask3_18_1459" style="mask-type:luminance" maskUnits="userSpaceOnUse" x="125" y="159" width="74" height="53">
<path d="M196.689 159.276C196.689 159.276 200.324 169.116 198.304 175.347C196.283 181.578 181.821 186.184 178.608 186.184C175.395 186.184 149.701 179.758 149.701 179.758L148.413 181.167L144.456 179.557L150.687 208.28C150.687 208.28 153.7 209.889 150.687 210.892C147.675 211.894 136.226 211.9 136.025 210.892C135.916 210.025 135.916 209.147 136.025 208.28L134.326 205.067C134.326 205.067 134.637 199.443 134.326 198.641C134.015 197.839 121.162 171.11 126.565 164.684C131.968 158.258 164.025 163.476 164.025 163.476L168.114 159.255L196.689 159.276Z" fill="white"/>
</mask>
<g mask="url(#mask3_18_1459)">
<path opacity="0.2" d="M145.248 179.853L148.413 181.14L149.701 179.732C149.701 179.732 175.395 186.184 178.608 186.184C181.821 186.184 196.288 181.568 198.304 175.337C198.458 174.855 198.58 174.363 198.668 173.865C196.457 176.049 192.173 179.795 187.672 181.082C187.672 181.082 188.986 179.705 185.493 178.972C182.001 178.238 171.285 161.249 171.285 161.249L166.589 160.88L164.025 163.497C164.025 163.497 159.081 162.69 152.75 162.104C150.588 168.158 148.083 174.084 145.248 179.853Z" fill="black"/>
<path opacity="0.2" d="M134.326 198.63C134.637 199.432 134.326 205.057 134.326 205.057L136.025 208.27C135.916 209.137 135.916 210.014 136.025 210.881C136.226 211.884 147.675 211.884 150.687 210.881C153.7 209.879 150.687 208.27 150.687 208.27L144.741 180.871C141.575 187.092 137.724 193.238 133.582 196.984C134.01 197.934 134.284 198.52 134.326 198.63Z" fill="black"/>
<path d="M144.456 179.547C144.456 179.547 146.276 176.26 145.263 173.891" stroke="white" stroke-linecap="round" stroke-linejoin="round"/>
<path d="M143.633 174.577C143.754 175.544 143.798 176.52 143.765 177.494" stroke="white" stroke-linecap="round" stroke-linejoin="round"/>
<path d="M142.805 170.789C143.032 171.489 143.219 172.203 143.364 172.925" stroke="white" stroke-linecap="round" stroke-linejoin="round"/>
<path d="M139.697 184.132C139.697 184.132 139.528 193.703 134.326 198.63" stroke="white" stroke-linecap="round" stroke-linejoin="round"/>
<path d="M141.554 202.471C140.146 204.582 138.42 207.167 136.025 208.275" stroke="white" stroke-linecap="round" stroke-linejoin="round"/>
<path d="M143.29 199.596C143.021 200.092 142.736 200.577 142.446 201.063" stroke="white" stroke-linecap="round" stroke-linejoin="round"/>
<path opacity="0.2" d="M198.235 164.874C197.847 162.975 197.331 161.105 196.689 159.276H195.439L189.535 162.706C189.535 162.706 188.464 165.275 198.235 164.874Z" fill="black"/>
<path d="M195.602 166.615C195.602 166.615 192.542 165.238 189.535 165.824" stroke="white" stroke-linecap="round" stroke-linejoin="round"/>
</g>
<path d="M196.689 159.276C196.689 159.276 200.324 169.116 198.304 175.347C196.283 181.578 181.821 186.184 178.608 186.184C175.395 186.184 149.701 179.758 149.701 179.758L148.413 181.167L144.456 179.557L150.687 208.28C150.687 208.28 153.7 209.889 150.687 210.892C147.675 211.894 136.226 211.9 136.025 210.892C135.916 210.025 135.916 209.147 136.025 208.28L134.326 205.067C134.326 205.067 134.637 199.443 134.326 198.641C134.015 197.839 121.162 171.11 126.565 164.684C131.968 158.258 164.025 163.476 164.025 163.476L168.114 159.255L196.689 159.276Z" stroke="#263238" stroke-miterlimit="10"/>
<path d="M173.095 210.633C173.095 210.633 173.654 214.094 173.095 214.722C172.535 215.35 171.412 222.726 171.412 222.726C171.412 222.726 156.85 224.99 152.513 224.678C146.709 224.261 145.353 222.568 145.353 222.568C145.353 222.568 145.253 220.341 150.714 218.595C157.451 216.442 162.643 209.246 162.643 209.246L173.095 210.633Z" fill="#BFBFBF" stroke="#263238" stroke-linecap="round" stroke-linejoin="round"/>
<path d="M146.382 134.151C151.294 142.662 163.92 155.936 163.92 155.936C163.92 155.936 163.128 157.139 164.88 159.35C164.337 159.9 163.999 160.618 163.92 161.387C163.814 162.589 174.197 168.615 184.043 167.011C193.888 165.407 198.103 162.589 198.288 160.579C198.473 158.569 188.327 131.719 181.499 123.483C176.064 119.617 169.566 117.525 162.896 117.495C155.014 117.453 148.867 120.054 146.076 123.921" fill="#1BBA96"/>
<mask id="mask4_18_1459" style="mask-type:luminance" maskUnits="userSpaceOnUse" x="146" y="117" width="53" height="51">
<path d="M146.382 134.151C151.294 142.662 163.92 155.936 163.92 155.936C163.92 155.936 163.128 157.139 164.88 159.35C164.337 159.9 163.999 160.618 163.92 161.387C163.814 162.589 174.197 168.615 184.043 167.011C193.888 165.407 198.103 162.589 198.288 160.579C198.473 158.569 188.327 131.719 181.499 123.483C176.064 119.617 169.566 117.525 162.896 117.495C155.014 117.453 148.867 120.054 146.076 123.921" fill="white"/>
</mask>
<g mask="url(#mask4_18_1459)">
<path opacity="0.2" d="M185.752 166.663C185.224 166.768 184.633 166.874 184.043 166.969C174.197 168.551 163.814 162.547 163.92 161.344C164.004 160.585 164.343 159.877 164.88 159.334C164.817 159.25 164.753 159.171 164.7 159.091C169.507 158.163 173.907 155.583 171.886 155.673C169.117 155.799 167.418 155.388 170.441 153.588C173.464 151.789 172.704 141.084 172.704 141.084C172.704 141.084 178.835 136.336 185.24 148.782C191.287 160.532 188.638 163.46 185.752 166.663Z" fill="black"/>
</g>
<path d="M146.382 134.151C151.294 142.662 163.92 155.936 163.92 155.936C163.92 155.936 163.128 157.139 164.88 159.35C164.337 159.9 163.999 160.618 163.92 161.387C163.814 162.589 174.197 168.615 184.043 167.011C193.888 165.407 198.103 162.589 198.288 160.579C198.473 158.569 188.327 131.719 181.499 123.483C176.064 119.617 169.566 117.525 162.896 117.495C155.014 117.453 148.867 120.054 146.076 123.921" stroke="#263238" stroke-linecap="round" stroke-linejoin="round"/>
<path d="M170.441 119.062C170.441 119.062 166.647 113.232 162.574 113.997C158.501 114.762 147.01 102.131 145.923 100.569C144.836 99.0077 143.375 102.59 143.375 102.59C143.375 102.59 141.597 103.988 141.18 105.513C140.763 107.038 141.913 114.445 141.18 116.012C140.723 117.164 140.511 118.399 140.557 119.637L143.58 117.463C143.58 117.463 145.802 122.797 147.406 124.465C149.009 126.132 153.014 121.901 156.074 119.637C159.134 117.374 163.513 116.318 165.914 120.233" fill="#BFBFBF"/>
<path d="M170.441 119.062C170.441 119.062 166.647 113.232 162.574 113.997C158.501 114.762 147.01 102.131 145.923 100.569C144.836 99.0077 143.375 102.59 143.375 102.59C143.375 102.59 141.597 103.988 141.18 105.513C140.763 107.038 141.913 114.445 141.18 116.012C140.723 117.164 140.511 118.399 140.557 119.637L143.58 117.463C143.58 117.463 145.802 122.797 147.406 124.465C149.009 126.132 153.014 121.901 156.074 119.637C159.134 117.374 163.513 116.318 165.914 120.233" stroke="#263238" stroke-linecap="round" stroke-linejoin="round"/>
<path d="M143.58 117.463L145.163 117.057C145.163 117.057 143.285 109.697 143.58 108.731C143.876 107.766 145.132 102.68 145.163 101.435" stroke="#263238" stroke-linecap="round" stroke-linejoin="round"/>
<path d="M148.26 120.819C149.21 121.874 152.091 119.637 153.009 119.062" stroke="#263238" stroke-linecap="round" stroke-linejoin="round"/>
<path d="M146.477 116.461C146.681 117.323 146.942 118.171 147.258 118.999" stroke="#263238" stroke-linecap="round" stroke-linejoin="round"/>
<path d="M149.986 117.97C151.067 118.181 151.996 119.273 152.624 120.233C152.948 120.737 153.232 121.267 153.473 121.816C153.473 121.816 151.89 127.034 157.119 126.037C162.347 125.04 164.052 119.706 164.052 119.706C160.933 117.395 161.234 114.308 161.234 114.308C157.9 113.142 151.542 115.891 150.028 117.279C149.627 117.595 149.569 117.891 149.986 117.97Z" fill="white" stroke="#263238" stroke-linecap="round" stroke-linejoin="round"/>
<path d="M149.986 117.97C151.067 118.181 151.996 119.273 152.624 120.233C154.85 118.529 154.966 116.461 154.966 116.461L150.038 117.247C149.627 117.595 149.569 117.891 149.986 117.97Z" fill="#263238"/>
<path d="M165.914 155.583C165.914 155.583 175.443 154.897 177.859 149.426" stroke="#263238" stroke-linecap="round" stroke-linejoin="round"/>
<path d="M188.49 161.292C181.209 162.046 173.49 161.846 166.568 159.26" stroke="#263238" stroke-linecap="round" stroke-linejoin="round"/>
<path d="M193.861 160.5C192.706 160.738 191.54 160.917 190.369 161.07" stroke="#263238" stroke-linecap="round" stroke-linejoin="round"/>
<path d="M160.237 114.773C160.237 114.773 162.611 111.828 163.265 109.76C166.067 100.896 166.558 95.2089 156.512 93.0299C149.416 91.4945 145.77 101.007 145.934 104.447C146.028 106.389 145.074 108.283 144.593 109.824C144.066 111.544 145.079 118.265 147.279 118.84C150.091 119.542 154.734 118.571 155.462 117.015" fill="white"/>
<path d="M160.237 114.773C160.237 114.773 162.611 111.828 163.265 109.76C166.067 100.896 166.558 95.2089 156.512 93.0299C149.416 91.4945 145.77 101.007 145.934 104.447C146.028 106.389 145.074 108.283 144.593 109.824C144.066 111.544 145.079 118.265 147.279 118.84C150.091 119.542 154.734 118.571 155.462 117.015" stroke="#263238" stroke-linecap="round" stroke-linejoin="round"/>
<path d="M151.822 106.959C151.695 107.423 151.848 107.871 152.17 107.961C152.492 108.051 152.856 107.745 152.982 107.281C153.109 106.816 152.956 106.368 152.634 106.278C152.312 106.188 151.948 106.515 151.822 106.959Z" fill="#263238"/>
<path d="M146.968 105.349C146.841 105.814 146.994 106.262 147.316 106.352C147.638 106.442 148.002 106.136 148.128 105.671C148.255 105.207 148.102 104.759 147.78 104.674C147.458 104.59 147.094 104.885 146.968 105.349Z" fill="#263238"/>
<path d="M148.725 106.552C148.725 106.552 146.213 108.763 146.087 109.19C145.96 109.618 147.495 110.831 147.495 110.831" stroke="#263238" stroke-linecap="round" stroke-linejoin="round"/>
<path d="M146.614 112.546C147.862 113.227 149.322 113.407 150.698 113.047" stroke="#263238" stroke-linecap="round" stroke-linejoin="round"/>
<path d="M152.328 102.69C152.328 102.69 153.457 102.131 154.966 103.661" stroke="#263238" stroke-linecap="round" stroke-linejoin="round"/>
<path d="M148.725 101.994C148.725 101.994 147.348 100.738 146.931 101.994" stroke="#263238" stroke-linecap="round" stroke-linejoin="round"/>
<path d="M157.119 99.9046C157.119 99.9046 158.374 102.131 158.174 104.358C157.988 105.973 157.634 107.564 157.119 109.106L157.646 109.523C157.646 109.523 159.783 108.41 160.337 109.523C160.891 110.636 158.802 113.559 158.802 113.559C158.802 113.559 160.021 116.197 161.851 116.477C161.851 116.477 161.746 115.506 162.379 115.226C163.012 114.947 165.328 112.952 165.328 110.858C165.328 110.858 165.814 111.512 165.328 112.968C165.328 112.968 169.022 105.502 165.545 99.9362C162.068 94.37 157.119 99.9046 157.119 99.9046Z" fill="#263238"/>
<path d="M158.823 109.734C158.823 109.734 161.493 107.481 161.836 109.734C162.179 111.987 158.422 115.158 157.52 114.055C156.618 112.952 157.52 112.747 157.52 112.747" fill="white"/>
<path d="M158.823 109.734C158.823 109.734 161.493 107.481 161.836 109.734C162.179 111.987 158.422 115.158 157.52 114.055C156.618 112.952 157.52 112.747 157.52 112.747" stroke="#263238" stroke-linecap="round" stroke-linejoin="round"/>
<path d="M146.087 117.838C146.087 117.838 147.722 117.627 148.64 118.366C149.558 119.104 148.477 120.223 146.915 119.315C145.353 118.408 146.087 117.838 146.087 117.838Z" fill="#263238"/>
<path d="M148.434 118.35C148.434 118.35 156.417 118.408 161.271 100.569H162.094C162.094 100.569 161.82 115.643 148.967 119.062L148.434 118.35Z" fill="#263238"/>
<path d="M147.622 95.8895C147.622 95.8895 144.984 97.008 145.153 97.5673C145.322 98.1265 149.706 101.187 158.543 101.261C165.086 101.313 168.42 107.064 168.42 107.064C169.048 105.286 167.856 103.097 167.856 103.097C167.856 103.097 168.7 97.1452 165.708 94.5705C165.708 94.5705 165.07 92.0063 161.049 90.3971C155.652 88.2392 154.022 91.236 154.022 91.236C152.616 91.2982 151.26 91.7725 150.122 92.6C148.984 93.4275 148.114 94.5715 147.622 95.8895Z" fill="#1BBA96" stroke="#263238" stroke-linecap="round" stroke-linejoin="round"/>
<path d="M159.509 99.0604C162.722 99.3506 165.919 100.358 167.856 103.102" stroke="#263238" stroke-linecap="round" stroke-linejoin="round"/>
<path d="M154.671 98.8969C155.684 98.8969 156.697 98.8969 157.71 98.9549" stroke="#263238" stroke-linecap="round" stroke-linejoin="round"/>
<path d="M147.622 95.8895C148.25 98.5275 150.566 98.7808 152.856 98.8599" stroke="#263238" stroke-linecap="round" stroke-linejoin="round"/>
<path d="M160.511 92.5972C161.47 92.525 162.432 92.6649 163.33 93.0068C164.229 93.3488 165.04 93.8845 165.708 94.5757" stroke="#263238" stroke-linecap="round" stroke-linejoin="round"/>
<path d="M154.001 91.2413C151.241 95.4621 156.818 93.3939 158.855 92.8768" stroke="#263238" stroke-linecap="round" stroke-linejoin="round"/>
<path d="M157.119 105.735C157.119 105.988 156.533 106.711 156.939 107.069C157.346 107.428 157.667 106.304 157.388 105.08" stroke="#263238" stroke-width="0.5" stroke-linecap="round" stroke-linejoin="round"/>
<path d="M156.639 102.416C156.639 102.669 155.831 103.856 156.238 104.21C156.644 104.563 156.955 103.751 156.765 103.155" stroke="#263238" stroke-width="0.5" stroke-linecap="round" stroke-linejoin="round"/>
<path d="M183.9 141.248C183.9 141.248 171.649 138.367 172.293 142.72C172.936 147.073 175.844 155.847 175.844 155.847C175.844 155.847 159.662 165.755 158.749 166.489C158.464 166.715 162.11 170.24 162.11 170.24C165.07 168.567 185.799 163.544 186.601 159.93C187.403 156.316 183.9 141.248 183.9 141.248Z" fill="white" stroke="#263238" stroke-linecap="round" stroke-linejoin="round"/>
<path d="M177.405 122.302C177.405 122.302 183.03 127.525 182.829 131.339C182.629 135.154 185.24 142.361 185.24 142.361L184.032 143.59C184.032 143.59 175.997 143.991 172.182 146.228C172.182 146.228 170.504 147.284 170.979 143.416C170.938 142.379 170.692 141.359 170.254 140.418C169.817 139.476 169.197 138.63 168.431 137.929C167.022 136.679 167.159 129.556 167.159 129.556" fill="#1BBA96"/>
<path d="M177.405 122.302C177.405 122.302 183.03 127.525 182.829 131.339C182.629 135.154 185.24 142.361 185.24 142.361L184.032 143.59C184.032 143.59 175.997 143.991 172.182 146.228C172.182 146.228 170.504 147.284 170.979 143.416C170.938 142.379 170.692 141.359 170.254 140.418C169.817 139.476 169.197 138.63 168.431 137.929C167.022 136.679 167.159 129.556 167.159 129.556" stroke="#263238" stroke-linecap="round" stroke-linejoin="round"/>
<path d="M187.045 177.943C186.243 181.757 183.23 187.097 182.027 189.307C180.824 191.518 175.796 209.003 175.796 209.003C175.796 209.003 175.997 212.216 171.38 213.018C166.763 213.82 158.005 210.813 160.332 209.399C162.659 207.985 165.17 191.793 165.17 191.793C165.17 191.793 163.941 189.587 166.188 186.332C168.436 183.076 168.621 164.552 172.994 163.275C180.629 161.07 189.545 165.824 189.545 165.824C189.545 165.824 192.067 166.615 192.901 168.91" fill="#263238"/>
<mask id="mask5_18_1459" style="mask-type:luminance" maskUnits="userSpaceOnUse" x="159" y="162" width="34" height="52">
<path d="M187.045 177.943C186.243 181.757 183.23 187.097 182.027 189.307C180.824 191.518 175.796 209.003 175.796 209.003C175.796 209.003 175.997 212.216 171.38 213.018C166.763 213.82 158.005 210.813 160.332 209.399C162.659 207.985 165.17 191.793 165.17 191.793C165.17 191.793 163.941 189.587 166.188 186.332C168.436 183.076 168.621 164.552 172.994 163.275C180.629 161.07 189.545 165.824 189.545 165.824C189.545 165.824 192.067 166.615 192.901 168.91" fill="white"/>
</mask>
<g mask="url(#mask5_18_1459)">
<path d="M185.356 170.002C183.974 167.164 181.663 164.626 178.46 164.009" stroke="white" stroke-linecap="round" stroke-linejoin="round"/>
<path d="M186.712 173.817C186.545 173.062 186.325 172.32 186.053 171.596" stroke="white" stroke-linecap="round" stroke-linejoin="round"/>
<path d="M166.99 191.83C166.387 191.906 165.776 191.896 165.175 191.798" stroke="white" stroke-linecap="round" stroke-linejoin="round"/>
<path d="M180.212 182.428C177.194 186.063 173.248 189.946 168.673 191.444" stroke="white" stroke-linecap="round" stroke-linejoin="round"/>
</g>
<path d="M187.045 177.943C186.243 181.757 183.23 187.097 182.027 189.307C180.824 191.518 175.796 209.003 175.796 209.003C175.796 209.003 175.997 212.216 171.38 213.018C166.763 213.82 158.005 210.813 160.332 209.399C162.659 207.985 165.17 191.793 165.17 191.793C165.17 191.793 163.941 189.587 166.188 186.332C168.436 183.076 168.621 164.552 172.994 163.275C180.629 161.07 189.545 165.824 189.545 165.824C189.545 165.824 192.067 166.615 192.901 168.91" stroke="#263238" stroke-miterlimit="10"/>
<path d="M166.436 178.233C166.457 178.133 166.497 178.037 166.555 177.952C166.613 177.867 166.686 177.795 166.772 177.738C166.858 177.682 166.954 177.643 167.055 177.624C167.156 177.605 167.259 177.605 167.36 177.626L169.86 178.154C169.823 177.541 169.592 176.956 169.201 176.483C168.81 176.01 168.279 175.673 167.685 175.521C167.09 175.368 166.463 175.408 165.892 175.635C165.322 175.862 164.838 176.263 164.511 176.782L145.823 172.931C145.727 172.324 145.442 171.764 145.008 171.33C144.575 170.896 144.014 170.611 143.408 170.515C142.802 170.42 142.181 170.519 141.635 170.798C141.088 171.078 140.645 171.523 140.367 172.071L142.868 172.598C142.969 172.619 143.064 172.659 143.149 172.717C143.234 172.775 143.306 172.848 143.363 172.934C143.419 173.02 143.458 173.116 143.477 173.217C143.496 173.317 143.496 173.421 143.475 173.522C143.454 173.622 143.414 173.717 143.356 173.802C143.298 173.887 143.225 173.96 143.139 174.016C143.053 174.072 142.957 174.111 142.856 174.131C142.756 174.15 142.652 174.149 142.552 174.128L140.051 173.601C140.088 174.213 140.319 174.798 140.71 175.271C141.101 175.744 141.632 176.081 142.226 176.234C142.821 176.386 143.448 176.346 144.019 176.12C144.589 175.893 145.073 175.491 145.401 174.972L164.088 178.798C164.185 179.403 164.47 179.963 164.905 180.397C165.339 180.83 165.899 181.115 166.505 181.21C167.111 181.304 167.732 181.205 168.278 180.925C168.824 180.645 169.267 180.2 169.544 179.652L167.043 179.125C166.847 179.081 166.675 178.965 166.563 178.799C166.45 178.634 166.405 178.431 166.436 178.233Z" fill="#BFBFBF" stroke="#263238" stroke-linecap="round" stroke-linejoin="round"/>
<path d="M162.838 162.969C161.26 163.931 159.801 165.075 158.491 166.378C157.493 167.164 151.843 171.881 151.917 172.593C151.99 173.305 151.489 178.075 151.917 178.507C152.344 178.94 154.133 177.526 154.133 177.526C154.133 177.526 154.634 178.813 155.188 178.887C155.738 178.913 156.289 178.888 156.834 178.813C156.834 178.813 157.762 180.243 158.617 180.101C159.472 179.958 160.622 178.312 159.783 178.244C159.562 178.21 159.336 178.238 159.13 178.326C158.924 178.413 158.746 178.557 158.617 178.74V176.956C159.335 176.418 160.005 175.819 160.622 175.168C161.551 174.165 162.068 170.899 162.068 170.899C162.453 170.683 165.028 169.491 165.898 169.179L162.838 162.969Z" fill="#1BBA96" stroke="#263238" stroke-linecap="round" stroke-linejoin="round"/>
<path d="M154.133 177.531L153.262 174.202" stroke="#263238" stroke-linecap="round" stroke-linejoin="round"/>
<path d="M156.85 178.819L156.085 176.803" stroke="#263238" stroke-linecap="round" stroke-linejoin="round"/>
<path d="M153.695 175.869L152.967 177.173" stroke="#263238" stroke-linecap="round" stroke-linejoin="round"/>
<path d="M155.789 178.798C155.045 178.27 154.523 175.848 154.523 175.848" stroke="#263238" stroke-linecap="round" stroke-linejoin="round"/>
<path d="M165.265 114.282C165.265 114.282 170.71 116.049 170.689 120.771C170.689 122.845 164.885 135.972 165.914 142.361C166.943 148.75 167.069 149.399 167.069 149.399C167.069 149.399 164.579 149.5 163.682 149.399C162.785 149.299 163.107 150.982 163.107 150.982L159.941 151.584C159.941 151.584 158.997 141.116 158.886 136.573C158.775 132.031 164.062 117.917 164.062 117.917C164.116 117.479 164.053 117.035 163.879 116.629C163.706 116.223 163.429 115.87 163.075 115.606" fill="#BFBFBF"/>
<path d="M165.265 114.282C165.265 114.282 170.71 116.049 170.689 120.771C170.689 122.845 164.885 135.972 165.914 142.361C166.943 148.75 167.069 149.399 167.069 149.399C167.069 149.399 164.579 149.5 163.682 149.399C162.785 149.299 163.107 150.982 163.107 150.982L159.941 151.584C159.941 151.584 158.997 141.116 158.886 136.573C158.775 132.031 164.062 117.917 164.062 117.917C164.116 117.479 164.053 117.035 163.879 116.629C163.706 116.223 163.429 115.87 163.075 115.606" stroke="#263238" stroke-linecap="round" stroke-linejoin="round"/>
<path d="M163.292 139.005C162.949 142.171 162.717 145.337 162.574 148.539" stroke="#263238" stroke-linecap="round" stroke-linejoin="round"/>
<path d="M164.263 132.025C163.983 133.661 163.735 135.302 163.534 136.948" stroke="#263238" stroke-linecap="round" stroke-linejoin="round"/>
<path d="M166.568 121.626C165.808 124.363 165.167 127.129 164.642 129.925" stroke="#263238" stroke-linecap="round" stroke-linejoin="round"/>
<path d="M167.069 116.461C167.534 117.548 167.112 118.788 166.916 119.89" stroke="#263238" stroke-linecap="round" stroke-linejoin="round"/>
<path d="M140.214 128.86C140.624 130.597 141.291 132.263 142.193 133.803" stroke="#263238" stroke-linecap="round" stroke-linejoin="round"/>
<path d="M139.228 122.982C139.291 123.89 139.407 124.792 139.544 125.694" stroke="#263238" stroke-linecap="round" stroke-linejoin="round"/>
<path d="M175.78 135.914C174.922 136.736 173.861 137.316 172.704 137.591" stroke="#263238" stroke-linecap="round" stroke-linejoin="round"/>
<path d="M180.212 128.675C179.507 130.739 178.474 132.675 177.152 134.41" stroke="#263238" stroke-linecap="round" stroke-linejoin="round"/>
<path d="M106.854 104.553V65.262L103.514 67.9V104.553H106.854Z" fill="#999999" stroke="#263238" stroke-linecap="round" stroke-linejoin="round"/>
<path d="M89.3319 76.4419H79.9089L80.3573 66.945C80.379 66.5017 80.5701 66.0837 80.8912 65.7774C81.2123 65.471 81.6388 65.2997 82.0826 65.2989H87.1582C87.602 65.2997 88.0285 65.471 88.3496 65.7774C88.6707 66.0837 88.8618 66.5017 88.8835 66.945L89.3319 76.4419Z" fill="#1BBA96"/>
<mask id="mask6_18_1459" style="mask-type:luminance" maskUnits="userSpaceOnUse" x="79" y="65" width="11" height="12">
<path d="M89.3319 76.4419H79.9089L80.3573 66.945C80.379 66.5017 80.5701 66.0837 80.8912 65.7774C81.2123 65.471 81.6388 65.2997 82.0826 65.2989H87.1582C87.602 65.2997 88.0285 65.471 88.3496 65.7774C88.6707 66.0837 88.8618 66.5017 88.8835 66.945L89.3319 76.4419Z" fill="white"/>
</mask>
<g mask="url(#mask6_18_1459)">
<path opacity="0.5" d="M88.8518 69.0555C88.8528 69.6077 88.69 70.1478 88.384 70.6075C88.0779 71.0672 87.6424 71.4258 87.1325 71.6378C86.6226 71.8499 86.0612 71.9059 85.5195 71.7988C84.9777 71.6917 84.4799 71.4263 84.0891 71.0362C83.6982 70.6461 83.4319 70.1488 83.3237 69.6072C83.2156 69.0657 83.2706 68.5042 83.4817 67.9939C83.6928 67.4836 84.0505 67.0474 84.5096 66.7405C84.9687 66.4335 85.5085 66.2697 86.0607 66.2697C86.8001 66.2697 87.5092 66.563 88.0324 67.0853C88.5557 67.6076 88.8504 68.3162 88.8518 69.0555Z" fill="white"/>
<path opacity="0.5" d="M88.4086 69.0555C88.4086 69.5199 88.2709 69.9738 88.0129 70.3599C87.755 70.746 87.3883 71.0469 86.9593 71.2246C86.5302 71.4023 86.0582 71.4488 85.6027 71.3582C85.1473 71.2676 84.7289 71.044 84.4006 70.7157C84.0722 70.3873 83.8486 69.969 83.758 69.5135C83.6674 69.0581 83.7139 68.586 83.8916 68.157C84.0693 67.728 84.3703 67.3613 84.7564 67.1033C85.1425 66.8453 85.5964 66.7076 86.0608 66.7076C86.6835 66.7076 87.2806 66.955 87.721 67.3953C88.1613 67.8356 88.4086 68.4328 88.4086 69.0555Z" fill="white"/>
<path opacity="0.2" d="M81.5286 70.5539C82.225 70.5539 82.7896 69.9893 82.7896 69.2929C82.7896 68.5965 82.225 68.0319 81.5286 68.0319C80.8322 68.0319 80.2676 68.5965 80.2676 69.2929C80.2676 69.9893 80.8322 70.5539 81.5286 70.5539Z" fill="white"/>
<path opacity="0.2" d="M81.5286 70.0157C81.9278 70.0157 82.2515 69.6921 82.2515 69.2929C82.2515 68.8937 81.9278 68.5701 81.5286 68.5701C81.1294 68.5701 80.8058 68.8937 80.8058 69.2929C80.8058 69.6921 81.1294 70.0157 81.5286 70.0157Z" fill="white"/>
<path opacity="0.2" d="M86.008 73.2763C86.008 73.7542 85.8663 74.2214 85.6008 74.6188C85.3353 75.0162 84.9579 75.3259 84.5163 75.5088C84.0748 75.6917 83.5889 75.7395 83.1202 75.6463C82.6514 75.5531 82.2208 75.3229 81.8829 74.985C81.545 74.647 81.3148 74.2165 81.2216 73.7477C81.1283 73.279 81.1762 72.7931 81.3591 72.3516C81.542 71.91 81.8517 71.5326 82.2491 71.2671C82.6465 71.0016 83.1137 70.8599 83.5916 70.8599C84.232 70.8613 84.8459 71.1163 85.2987 71.5692C85.7516 72.022 86.0066 72.6359 86.008 73.2763Z" fill="white"/>
<path opacity="0.3" d="M85.4487 73.2763C85.4487 73.6436 85.3398 74.0027 85.1357 74.3081C84.9317 74.6135 84.6416 74.8515 84.3023 74.9921C83.9629 75.1327 83.5895 75.1695 83.2292 75.0978C82.869 75.0261 82.5381 74.8493 82.2783 74.5895C82.0186 74.3298 81.8417 73.9989 81.7701 73.6386C81.6984 73.2784 81.7352 72.905 81.8757 72.5656C82.0163 72.2262 82.2543 71.9362 82.5598 71.7321C82.8652 71.5281 83.2242 71.4191 83.5916 71.4191C84.0841 71.4191 84.5565 71.6148 84.9048 71.9631C85.2531 72.3114 85.4487 72.7838 85.4487 73.2763Z" fill="white"/>
</g>
<path d="M89.3319 76.4419H79.9089L80.3573 66.945C80.379 66.5017 80.5701 66.0837 80.8912 65.7774C81.2123 65.471 81.6388 65.2997 82.0826 65.2989H87.1582C87.602 65.2997 88.0285 65.471 88.3496 65.7774C88.6707 66.0837 88.8618 66.5017 88.8835 66.945L89.3319 76.4419Z" stroke="#263238" stroke-linecap="round" stroke-linejoin="round"/>
<path d="M93.5475 80.5309H75.6933L77.8037 75.7191H91.4371L93.5475 80.5309Z" fill="#999999" stroke="#263238" stroke-linecap="round" stroke-linejoin="round"/>
<path d="M106.854 149.679V193.961C106.854 194.592 106.729 195.217 106.488 195.8C106.246 196.384 105.892 196.913 105.446 197.36C105 197.806 104.47 198.16 103.887 198.402C103.303 198.643 102.678 198.767 102.047 198.767H93.748V195.074H101.425C101.984 195.074 102.521 194.852 102.917 194.456C103.313 194.06 103.535 193.524 103.535 192.964V149.679H106.854Z" fill="#999999" stroke="#263238" stroke-linecap="round" stroke-linejoin="round"/>
<path d="M22.8482 103.181V71.7937C22.8482 70.8911 23.2067 70.0256 23.8449 69.3874C24.4831 68.7492 25.3487 68.3906 26.2513 68.3906H28.9579V71.0287H26.6945C26.5 71.028 26.3073 71.0657 26.1275 71.1396C25.9477 71.2135 25.7842 71.3222 25.6464 71.4595C25.5087 71.5967 25.3994 71.7598 25.3248 71.9394C25.2503 72.119 25.2119 72.3115 25.2119 72.506V102.959L22.8482 103.181Z" fill="#999999" stroke="#263238" stroke-linecap="round" stroke-linejoin="round"/>
<path d="M35.3419 72.8225H33.2526V81.2748H35.3419V72.8225Z" fill="#999999" stroke="#263238" stroke-linecap="round" stroke-linejoin="round"/>
<path d="M51.1701 72.8225H49.0808V81.2748H51.1701V72.8225Z" fill="#999999" stroke="#263238" stroke-linecap="round" stroke-linejoin="round"/>
<path d="M54.531 52.974H29.897C28.8218 52.974 27.9501 53.8456 27.9501 54.9209V72.4532C27.9501 73.5285 28.8218 74.4001 29.897 74.4001H54.531C55.6062 74.4001 56.4778 73.5285 56.4778 72.4532V54.9209C56.4778 53.8456 55.6062 52.974 54.531 52.974Z" fill="#BFBFBF" stroke="#263238" stroke-linecap="round" stroke-linejoin="round"/>
<path d="M53.8292 55.9602H30.5934V71.4033H53.8292V55.9602Z" fill="#263238"/>
<path d="M22.8482 121.151V141.981C22.8482 142.884 23.2066 143.75 23.8446 144.389C24.4827 145.028 25.3482 145.388 26.2513 145.39H28.9579V142.752H26.6945C26.3013 142.752 25.9242 142.595 25.6461 142.317C25.3681 142.039 25.2119 141.662 25.2119 141.269V121.373L22.8482 121.151Z" fill="#999999" stroke="#263238" stroke-linecap="round" stroke-linejoin="round"/>
<path d="M21.6294 98.2584H28.9579V127.161H21.6294C21.0697 127.161 20.5329 126.938 20.1371 126.543C19.7414 126.147 19.519 125.61 19.519 125.05V100.379C19.5176 100.101 19.5712 99.8258 19.6766 99.5685C19.7821 99.3113 19.9373 99.0774 20.1334 98.8803C20.3295 98.6832 20.5626 98.5268 20.8194 98.4201C21.0761 98.3134 21.3514 98.2584 21.6294 98.2584Z" fill="#999999" stroke="#263238" stroke-linecap="round" stroke-linejoin="round"/>
<path d="M97.1669 80.0032H28.8418C27.6879 80.0032 26.7525 80.9387 26.7525 82.0926V213.493C26.7525 214.647 27.6879 215.582 28.8418 215.582H97.1669C98.3208 215.582 99.2562 214.647 99.2562 213.493V82.0926C99.2562 80.9387 98.3208 80.0032 97.1669 80.0032Z" fill="#757575" stroke="#263238" stroke-linecap="round" stroke-linejoin="round"/>
<path d="M93.6688 208.95L93.6688 86.6248H32.3398L32.3398 208.95H93.6688Z" fill="#999999" stroke="#263238" stroke-linecap="round" stroke-linejoin="round"/>
<path d="M92.086 88.2128H33.9227V207.373H92.086V88.2128Z" fill="#263238"/>
<path d="M61.717 191.576H59.9073V165.344C59.9073 165.104 60.0022 164.874 60.1712 164.704C60.3403 164.534 60.5697 164.438 60.8095 164.436C61.0502 164.436 61.281 164.532 61.4512 164.702C61.6214 164.872 61.717 165.103 61.717 165.344V191.576Z" fill="#757575" stroke="#263238" stroke-linecap="round" stroke-linejoin="round"/>
<path d="M65.0198 191.576H63.2101V165.344C63.2101 165.104 63.305 164.874 63.474 164.704C63.6431 164.534 63.8725 164.438 64.1123 164.436C64.353 164.436 64.5838 164.532 64.754 164.702C64.9242 164.872 65.0198 165.103 65.0198 165.344V191.576Z" fill="#757575" stroke="#263238" stroke-linecap="round" stroke-linejoin="round"/>
<path d="M68.3226 191.576H66.5129V165.344C66.5129 165.104 66.6078 164.874 66.7769 164.704C66.9459 164.534 67.1754 164.438 67.4152 164.436C67.6558 164.436 67.8866 164.532 68.0568 164.702C68.227 164.872 68.3226 165.103 68.3226 165.344V191.576Z" fill="#757575" stroke="#263238" stroke-linecap="round" stroke-linejoin="round"/>
<path d="M71.6254 191.576H69.8157V165.344C69.8157 165.104 69.9106 164.874 70.0797 164.704C70.2487 164.534 70.4782 164.438 70.7179 164.436C70.9586 164.436 71.1894 164.532 71.3596 164.702C71.5298 164.872 71.6254 165.103 71.6254 165.344V191.576Z" fill="#757575" stroke="#263238" stroke-linecap="round" stroke-linejoin="round"/>
<path d="M74.9283 191.576H73.1186V165.344C73.1186 165.104 73.2134 164.874 73.3825 164.704C73.5515 164.534 73.781 164.438 74.0208 164.436C74.2615 164.436 74.4923 164.532 74.6625 164.702C74.8326 164.872 74.9283 165.103 74.9283 165.344V191.576Z" fill="#757575" stroke="#263238" stroke-linecap="round" stroke-linejoin="round"/>
<path d="M78.2311 191.576H76.4425V165.344C76.4425 165.104 76.5374 164.874 76.7064 164.704C76.8754 164.534 77.1049 164.438 77.3447 164.436C77.5854 164.436 77.8162 164.532 77.9864 164.702C78.1566 164.872 78.2522 165.103 78.2522 165.344L78.2311 191.576Z" fill="#757575" stroke="#263238" stroke-linecap="round" stroke-linejoin="round"/>
<path d="M36.8087 159.223H55.0375C55.4393 159.223 55.8373 159.303 56.2085 159.456C56.5798 159.61 56.9171 159.836 57.2013 160.12C57.4855 160.404 57.7109 160.741 57.8646 161.112C58.0184 161.484 58.0976 161.882 58.0976 162.284V191.576H36.8087V159.223Z" fill="#757575" stroke="#263238" stroke-linecap="round" stroke-linejoin="round"/>
<path d="M53.1592 165.966H36.8087V174.039H53.1592V165.966Z" fill="#999999" stroke="#263238" stroke-linecap="round" stroke-linejoin="round"/>
<path d="M50.7217 168.23V171.775" stroke="#263238" stroke-linecap="round" stroke-linejoin="round"/>
<path d="M49.123 168.23V171.775" stroke="#263238" stroke-linecap="round" stroke-linejoin="round"/>
<path d="M47.5244 168.23V171.775" stroke="#263238" stroke-linecap="round" stroke-linejoin="round"/>
<path d="M45.9205 168.23V171.775" stroke="#263238" stroke-linecap="round" stroke-linejoin="round"/>
<path d="M44.3218 168.23V171.775" stroke="#263238" stroke-linecap="round" stroke-linejoin="round"/>
<path d="M56.6572 184.448H51.9088C51.7688 184.448 51.6346 184.393 51.5357 184.294C51.4368 184.195 51.3812 184.061 51.3812 183.921C51.3812 183.781 51.4368 183.647 51.5357 183.548C51.6346 183.449 51.7688 183.393 51.9088 183.393H56.6572C60.0708 183.393 61.4057 180.275 62.7933 176.967C63.896 174.355 65.0409 171.654 67.336 170.572C68.6094 169.941 70.0201 169.637 71.4406 169.687C72.8611 169.738 74.2465 170.142 75.4717 170.862C76.3624 171.406 77.0982 172.169 77.6082 173.08C78.1183 173.99 78.3855 175.016 78.3841 176.059C78.3841 176.199 78.3285 176.333 78.2295 176.432C78.1306 176.531 77.9964 176.587 77.8565 176.587C77.7165 176.587 77.5823 176.531 77.4834 176.432C77.3844 176.333 77.3289 176.199 77.3289 176.059C77.335 175.193 77.1148 174.34 76.69 173.585C76.2653 172.83 75.6507 172.199 74.9071 171.754C73.8321 171.128 72.618 170.779 71.3745 170.739C70.131 170.7 68.8972 170.971 67.7845 171.527C65.8534 172.466 64.8351 174.841 63.7799 177.378C62.2921 180.855 60.7673 184.448 56.6572 184.448Z" fill="#BFBFBF" stroke="#263238" stroke-linecap="round" stroke-linejoin="round"/>
<path d="M85.5754 174.313H71.884C69.4975 174.313 67.5629 176.248 67.5629 178.634V186.174C67.5629 188.56 69.4975 190.495 71.884 190.495H85.5754C87.9618 190.495 89.8965 188.56 89.8965 186.174V178.634C89.8965 176.248 87.9618 174.313 85.5754 174.313Z" fill="#999999" stroke="#263238" stroke-linecap="round" stroke-linejoin="round"/>
<path d="M38.0169 175.458H48.6165C50.3572 175.458 52.0267 176.149 53.2575 177.38C54.4884 178.611 55.1799 180.281 55.1799 182.021V188.59C55.1799 188.839 55.1308 189.086 55.0353 189.317C54.9399 189.547 54.8 189.757 54.6236 189.933C54.4472 190.109 54.2379 190.249 54.0074 190.345C53.777 190.44 53.53 190.489 53.2805 190.489H38.0169C37.7675 190.489 37.5205 190.44 37.29 190.345C37.0596 190.249 36.8502 190.109 36.6738 189.933C36.4974 189.757 36.3575 189.547 36.2621 189.317C36.1666 189.086 36.1175 188.839 36.1175 188.59V177.363C36.1168 177.113 36.1654 176.865 36.2606 176.634C36.3557 176.403 36.4955 176.193 36.6719 176.016C36.8484 175.839 37.058 175.699 37.2888 175.603C37.5196 175.507 37.767 175.458 38.0169 175.458Z" fill="#999999" stroke="#263238" stroke-linecap="round" stroke-linejoin="round"/>
<path d="M88.2609 161.729H80.0144C79.3995 161.729 78.9011 162.228 78.9011 162.843V171.089C78.9011 171.704 79.3995 172.202 80.0144 172.202H88.2609C88.8757 172.202 89.3741 171.704 89.3741 171.089V162.843C89.3741 162.228 88.8757 161.729 88.2609 161.729Z" fill="#999999" stroke="#263238" stroke-linecap="round" stroke-linejoin="round"/>
<path d="M86.467 166.963C86.468 167.422 86.3331 167.87 86.0792 168.252C85.8254 168.633 85.464 168.931 85.0408 169.107C84.6177 169.283 84.1518 169.33 83.7022 169.241C83.2525 169.152 82.8393 168.932 82.5149 168.608C82.1904 168.285 81.9693 167.872 81.8795 167.422C81.7897 166.973 81.8353 166.507 82.0104 166.084C82.1856 165.66 82.4825 165.298 82.8635 165.043C83.2445 164.788 83.6925 164.652 84.1508 164.652C84.7642 164.652 85.3525 164.896 85.7867 165.329C86.221 165.762 86.4656 166.35 86.467 166.963Z" fill="#BFBFBF" stroke="#263238" stroke-linecap="round" stroke-linejoin="round"/>
<path d="M50.7269 181.837H47.5244V191.576H50.7269V181.837Z" fill="#BFBFBF" stroke="#263238" stroke-linecap="round" stroke-linejoin="round"/>
<path d="M79.128 178.914H85.1797C85.3466 178.914 85.512 178.947 85.6663 179.01C85.8205 179.074 85.9607 179.168 86.0788 179.286C86.1968 179.404 86.2905 179.544 86.3544 179.699C86.4183 179.853 86.4512 180.018 86.4512 180.185V191.576H77.8565V180.185C77.8565 179.848 77.9904 179.525 78.2289 179.286C78.4674 179.048 78.7908 178.914 79.128 178.914Z" fill="#BFBFBF" stroke="#263238" stroke-linecap="round" stroke-linejoin="round"/>
<path d="M39.146 177.299H38.3334L37.9272 178.006L38.3334 178.713H39.146L39.5575 178.006L39.146 177.299Z" fill="#BFBFBF" stroke="#263238" stroke-linecap="round" stroke-linejoin="round"/>
<path d="M39.146 186.933H38.3334L37.9272 187.64L38.3334 188.347H39.146L39.5575 187.64L39.146 186.933Z" fill="#BFBFBF" stroke="#263238" stroke-linecap="round" stroke-linejoin="round"/>
<path d="M84.5465 166.256H83.7287L83.3225 166.963L83.7287 167.67H84.5465L84.9528 166.963L84.5465 166.256Z" fill="#BFBFBF" stroke="#263238" stroke-linecap="round" stroke-linejoin="round"/>
<path d="M39.146 160.743H38.3334L37.9272 161.45L38.3334 162.157H39.146L39.5575 161.45L39.146 160.743Z" fill="#999999" stroke="#263238" stroke-linecap="round" stroke-linejoin="round"/>
<path d="M55.5862 160.743H54.7684L54.3621 161.45L54.7684 162.157H55.5862L55.9924 161.45L55.5862 160.743Z" fill="#999999" stroke="#263238" stroke-linecap="round" stroke-linejoin="round"/>
<path d="M89.8912 192.995H36.8192V204.962H89.8912V192.995Z" fill="#757575" stroke="#263238" stroke-linecap="round" stroke-linejoin="round"/>
<path d="M87.9971 194.526H70.718V203.152H87.9971V194.526Z" fill="#999999" stroke="#263238" stroke-linecap="round" stroke-linejoin="round"/>
<path d="M73.5248 195.955H72.7123L72.3061 196.657L72.7123 197.364H73.5248L73.9364 196.657L73.5248 195.955Z" fill="#BFBFBF" stroke="#263238" stroke-linecap="round" stroke-linejoin="round"/>
<path d="M73.5248 200.282H72.7123L72.3061 200.989L72.7123 201.696H73.5248L73.9364 200.989L73.5248 200.282Z" fill="#BFBFBF" stroke="#263238" stroke-linecap="round" stroke-linejoin="round"/>
<path d="M86.1874 195.955H85.3748L84.9686 196.657L85.3748 197.364H86.1874L86.5989 196.657L86.1874 195.955Z" fill="#BFBFBF" stroke="#263238" stroke-linecap="round" stroke-linejoin="round"/>
<path d="M86.1874 200.282H85.3748L84.9686 200.989L85.3748 201.696H86.1874L86.5989 200.989L86.1874 200.282Z" fill="#BFBFBF" stroke="#263238" stroke-linecap="round" stroke-linejoin="round"/>
<path d="M41.5888 200.888H39.5575V202.92H41.5888V200.888Z" fill="#999999" stroke="#263238" stroke-linecap="round" stroke-linejoin="round"/>
<path d="M45.4403 200.888H43.4091V202.92H45.4403V200.888Z" fill="#999999" stroke="#263238" stroke-linecap="round" stroke-linejoin="round"/>
<path d="M49.2971 200.888H47.2658V202.92H49.2971V200.888Z" fill="#999999" stroke="#263238" stroke-linecap="round" stroke-linejoin="round"/>
<path d="M53.1539 201.901C53.155 202.103 53.0961 202.3 52.9849 202.469C52.8736 202.637 52.715 202.768 52.529 202.846C52.343 202.924 52.1381 202.945 51.9402 202.906C51.7424 202.867 51.5604 202.771 51.4175 202.629C51.2746 202.486 51.177 202.305 51.1373 202.107C51.0976 201.91 51.1175 201.705 51.1944 201.518C51.2713 201.332 51.4018 201.173 51.5694 201.06C51.7369 200.948 51.934 200.888 52.1356 200.888C52.2691 200.888 52.4014 200.913 52.5249 200.964C52.6484 201.015 52.7607 201.089 52.8554 201.183C52.95 201.277 53.0251 201.389 53.0763 201.513C53.1275 201.636 53.1539 201.768 53.1539 201.901Z" fill="#999999" stroke="#263238" stroke-linecap="round" stroke-linejoin="round"/>
<path d="M57.0054 201.901C57.0065 202.103 56.9475 202.301 56.836 202.469C56.7245 202.637 56.5655 202.769 56.3793 202.846C56.193 202.924 55.9878 202.945 55.7898 202.906C55.5918 202.867 55.4098 202.769 55.2671 202.627C55.1244 202.484 55.0273 202.302 54.9882 202.104C54.9491 201.906 54.9697 201.701 55.0474 201.515C55.1251 201.328 55.2565 201.169 55.4247 201.058C55.593 200.946 55.7906 200.887 55.9924 200.888C56.2611 200.888 56.5187 200.995 56.7087 201.185C56.8987 201.375 57.0054 201.633 57.0054 201.901Z" fill="#999999" stroke="#263238" stroke-linecap="round" stroke-linejoin="round"/>
<path d="M37.3996 153.852C54.7473 153.852 72.7492 139.327 88.5774 139.327" stroke="#999999" stroke-linecap="round" stroke-linejoin="round"/>
<path d="M37.3996 95.7523C47.2342 95.7523 67.1619 117.542 88.5774 117.542" stroke="#1BBA96" stroke-linecap="round" stroke-linejoin="round"/>
<path d="M88.5774 95.7523C76.8698 95.7523 54.837 132.067 37.3996 132.067" stroke="#BFBFBF" stroke-linecap="round" stroke-linejoin="round"/>
<path d="M37.9272 139.327C49.1969 139.327 76.7801 110.124 88.5774 110.277" stroke="#757575" stroke-linecap="round" stroke-linejoin="round"/>
<path d="M37.3996 117.542C57.2534 117.542 73.9838 153.852 88.5774 153.852" stroke="#1BBA96" stroke-linecap="round" stroke-linejoin="round"/>
<path d="M37.3996 146.614C45.1449 146.614 72.7492 132.089 88.5774 132.089" stroke="#757575" stroke-linecap="round" stroke-linejoin="round"/>
<path d="M88.5774 146.614C78.6795 146.614 53.0273 103.039 37.3996 103.039" stroke="#BFBFBF" stroke-linecap="round" stroke-linejoin="round"/>
<path d="M37.3996 110.277C45.5617 110.277 66.4707 103.017 88.5774 103.017" stroke="#1BBA96" stroke-linecap="round" stroke-linejoin="round"/>
<path d="M37.3996 124.802C47.651 124.802 57.5858 129.551 64.0965 129.551C70.6072 129.551 81.3598 124.802 88.5774 124.802" stroke="#999999" stroke-linecap="round" stroke-linejoin="round"/>
<path d="M89.1842 94.0165H87.9971V97.4934H89.1842V94.0165Z" fill="#757575" stroke="#263238" stroke-linecap="round" stroke-linejoin="round"/>
<path d="M89.1842 101.276H87.9971V104.753H89.1842V101.276Z" fill="#757575" stroke="#263238" stroke-linecap="round" stroke-linejoin="round"/>
<path d="M89.1842 108.542H87.9971V112.018H89.1842V108.542Z" fill="#757575" stroke="#263238" stroke-linecap="round" stroke-linejoin="round"/>
<path d="M89.1842 115.801H87.9971V119.278H89.1842V115.801Z" fill="#757575" stroke="#263238" stroke-linecap="round" stroke-linejoin="round"/>
<path d="M89.1842 123.067H87.9971V126.543H89.1842V123.067Z" fill="#757575" stroke="#263238" stroke-linecap="round" stroke-linejoin="round"/>
<path d="M89.1842 130.326H87.9971V133.803H89.1842V130.326Z" fill="#757575" stroke="#263238" stroke-linecap="round" stroke-linejoin="round"/>
<path d="M89.1842 137.591H87.9971V141.068H89.1842V137.591Z" fill="#757575" stroke="#263238" stroke-linecap="round" stroke-linejoin="round"/>
<path d="M89.1842 144.851H87.9971V148.328H89.1842V144.851Z" fill="#757575" stroke="#263238" stroke-linecap="round" stroke-linejoin="round"/>
<path d="M89.1842 152.117H87.9971V155.593H89.1842V152.117Z" fill="#757575" stroke="#263238" stroke-linecap="round" stroke-linejoin="round"/>
<path d="M38.0063 94.0165H36.8192V97.4934H38.0063V94.0165Z" fill="#757575" stroke="#263238" stroke-linecap="round" stroke-linejoin="round"/>
<path d="M38.0063 101.276H36.8192V104.753H38.0063V101.276Z" fill="#757575" stroke="#263238" stroke-linecap="round" stroke-linejoin="round"/>
<path d="M38.0063 108.542H36.8192V112.018H38.0063V108.542Z" fill="#757575" stroke="#263238" stroke-linecap="round" stroke-linejoin="round"/>
<path d="M38.0063 115.801H36.8192V119.278H38.0063V115.801Z" fill="#757575" stroke="#263238" stroke-linecap="round" stroke-linejoin="round"/>
<path d="M38.0063 123.067H36.8192V126.543H38.0063V123.067Z" fill="#757575" stroke="#263238" stroke-linecap="round" stroke-linejoin="round"/>
<path d="M38.0063 130.326H36.8192V133.803H38.0063V130.326Z" fill="#757575" stroke="#263238" stroke-linecap="round" stroke-linejoin="round"/>
<path d="M38.0063 137.591H36.8192V141.068H38.0063V137.591Z" fill="#757575" stroke="#263238" stroke-linecap="round" stroke-linejoin="round"/>
<path d="M38.0063 144.851H36.8192V148.328H38.0063V144.851Z" fill="#757575" stroke="#263238" stroke-linecap="round" stroke-linejoin="round"/>
<path d="M38.0063 152.117H36.8192V155.593H38.0063V152.117Z" fill="#757575" stroke="#263238" stroke-linecap="round" stroke-linejoin="round"/>
<path d="M23.2967 212.253H102.712C103.29 212.253 103.844 212.483 104.253 212.891C104.661 213.3 104.891 213.854 104.891 214.432V221.455H21.1177V214.427C21.1191 213.85 21.3493 213.297 21.7578 212.889C22.1663 212.482 22.7197 212.253 23.2967 212.253Z" fill="#999999" stroke="#263238" stroke-linecap="round" stroke-linejoin="round"/>
<path d="M18.2686 220.078H107.735C108.124 220.078 108.497 220.232 108.772 220.507C109.047 220.782 109.202 221.155 109.202 221.544V225.274H16.8229V221.534C16.8257 221.15 16.9785 220.783 17.2487 220.511C17.519 220.239 17.8851 220.083 18.2686 220.078Z" fill="#BFBFBF" stroke="#263238" stroke-linecap="round" stroke-linejoin="round"/>
<path d="M34.2339 59.8645H36.0542C37.2096 59.8645 37.7742 60.5029 37.7742 61.6795V65.3727C37.7742 66.544 37.2096 67.1824 36.0542 67.1824H34.2339V59.8645ZM35.3841 60.9197V66.1641H36.0331C36.4024 66.1641 36.624 65.9742 36.624 65.4519V61.6373C36.624 61.1097 36.4024 60.9197 36.0331 60.9197H35.3841Z" fill="#1BBA96"/>
<path d="M38.4548 61.6267C38.4548 60.4502 39.0721 59.7801 40.2065 59.7801C41.3408 59.7801 41.9581 60.4502 41.9581 61.6267V65.4413C41.9581 66.6126 41.3356 67.2827 40.2065 67.2827C39.0774 67.2827 38.4548 66.6126 38.4548 65.4413V61.6267ZM39.6103 65.5152C39.6103 66.0428 39.8372 66.238 40.2065 66.238C40.5758 66.238 40.8027 66.0375 40.8027 65.5152V61.5528C40.8027 61.0252 40.5705 60.83 40.2065 60.83C39.8424 60.83 39.6103 61.0252 39.6103 61.5528V65.5152Z" fill="#1BBA96"/>
<path d="M43.7309 61.8852V67.1982H42.6757V59.8645H44.1213L45.282 64.2542V59.8645H46.3373V67.1982H45.1501L43.7309 61.8852Z" fill="#1BBA96"/>
<path d="M48.3052 62.9563H49.888V64.0115H48.3052V66.1589H50.2996V67.2141H47.1339V59.8804H50.2996V60.9356H48.3052V62.9563Z" fill="#1BBA96"/>
<path d="M107.123 92.7608H103.245C102.394 92.7608 101.704 93.4506 101.704 94.3014V188.305C101.704 189.156 102.394 189.846 103.245 189.846H107.123C107.974 189.846 108.663 189.156 108.663 188.305V94.3014C108.663 93.4506 107.974 92.7608 107.123 92.7608Z" fill="#BFBFBF" stroke="#263238" stroke-linecap="round" stroke-linejoin="round"/>
<path d="M102.902 94.6021C102.775 94.6021 102.65 94.6399 102.544 94.7106C102.438 94.7813 102.356 94.8818 102.307 94.9995C102.259 95.1171 102.246 95.2465 102.271 95.3714C102.295 95.4962 102.357 95.6109 102.447 95.7009C102.537 95.791 102.652 95.8523 102.776 95.8771C102.901 95.9019 103.031 95.8892 103.148 95.8405C103.266 95.7918 103.366 95.7093 103.437 95.6034C103.508 95.4975 103.546 95.3731 103.546 95.2458C103.546 95.0751 103.478 94.9114 103.357 94.7906C103.236 94.6699 103.073 94.6021 102.902 94.6021Z" fill="#263238"/>
<path d="M102.902 98.7703C102.775 98.7703 102.65 98.808 102.544 98.8787C102.438 98.9495 102.356 99.05 102.307 99.1676C102.259 99.2852 102.246 99.4147 102.271 99.5395C102.295 99.6644 102.357 99.7791 102.447 99.8691C102.537 99.9591 102.652 100.02 102.776 100.045C102.901 100.07 103.031 100.057 103.148 100.009C103.266 99.9599 103.366 99.8774 103.437 99.7715C103.508 99.6657 103.546 99.5412 103.546 99.4139C103.546 99.2432 103.478 99.0795 103.357 98.9588C103.236 98.8381 103.073 98.7703 102.902 98.7703Z" fill="#263238"/>
<path d="M102.902 102.938C102.775 102.938 102.65 102.976 102.544 103.047C102.438 103.118 102.356 103.218 102.307 103.336C102.259 103.453 102.246 103.583 102.271 103.708C102.295 103.832 102.357 103.947 102.447 104.037C102.537 104.127 102.652 104.188 102.776 104.213C102.901 104.238 103.031 104.225 103.148 104.177C103.266 104.128 103.366 104.045 103.437 103.94C103.508 103.834 103.546 103.709 103.546 103.582C103.546 103.411 103.478 103.248 103.357 103.127C103.236 103.006 103.073 102.938 102.902 102.938Z" fill="#263238"/>
<path d="M102.902 107.106C102.775 107.106 102.65 107.144 102.544 107.215C102.438 107.286 102.356 107.386 102.307 107.504C102.259 107.621 102.246 107.751 102.271 107.876C102.295 108.001 102.357 108.115 102.447 108.205C102.537 108.295 102.652 108.357 102.776 108.381C102.901 108.406 103.031 108.393 103.148 108.345C103.266 108.296 103.366 108.214 103.437 108.108C103.508 108.002 103.546 107.877 103.546 107.75C103.546 107.579 103.478 107.416 103.357 107.295C103.236 107.174 103.073 107.106 102.902 107.106Z" fill="#263238"/>
<path d="M102.902 111.264C102.742 111.278 102.593 111.352 102.485 111.471C102.377 111.589 102.316 111.744 102.316 111.905C102.316 112.066 102.377 112.22 102.485 112.339C102.593 112.458 102.742 112.531 102.902 112.546C102.991 112.554 103.081 112.544 103.166 112.515C103.25 112.486 103.328 112.441 103.394 112.38C103.46 112.32 103.513 112.247 103.549 112.165C103.585 112.083 103.604 111.994 103.604 111.905C103.604 111.816 103.585 111.727 103.549 111.645C103.513 111.563 103.46 111.49 103.394 111.43C103.328 111.369 103.25 111.323 103.166 111.295C103.081 111.266 102.991 111.256 102.902 111.264Z" fill="#263238"/>
<path d="M102.902 115.448C102.742 115.462 102.593 115.536 102.485 115.655C102.377 115.773 102.316 115.928 102.316 116.089C102.316 116.25 102.377 116.404 102.485 116.523C102.593 116.642 102.742 116.715 102.902 116.73C102.991 116.738 103.081 116.728 103.166 116.699C103.25 116.67 103.328 116.625 103.394 116.564C103.46 116.504 103.513 116.43 103.549 116.349C103.585 116.267 103.604 116.178 103.604 116.089C103.604 115.999 103.585 115.911 103.549 115.829C103.513 115.747 103.46 115.674 103.394 115.614C103.328 115.553 103.25 115.507 103.166 115.479C103.081 115.45 102.991 115.44 102.902 115.448Z" fill="#263238"/>
<path d="M102.902 119.616C102.742 119.631 102.593 119.704 102.485 119.823C102.377 119.942 102.316 120.096 102.316 120.257C102.316 120.418 102.377 120.572 102.485 120.691C102.593 120.81 102.742 120.884 102.902 120.898C102.991 120.906 103.081 120.896 103.166 120.867C103.25 120.839 103.328 120.793 103.394 120.732C103.46 120.672 103.513 120.599 103.549 120.517C103.585 120.435 103.604 120.346 103.604 120.257C103.604 120.168 103.585 120.079 103.549 119.997C103.513 119.915 103.46 119.842 103.394 119.782C103.328 119.721 103.25 119.676 103.166 119.647C103.081 119.618 102.991 119.608 102.902 119.616Z" fill="#263238"/>
<path d="M102.902 123.784C102.742 123.799 102.593 123.872 102.485 123.991C102.377 124.11 102.316 124.264 102.316 124.425C102.316 124.586 102.377 124.741 102.485 124.859C102.593 124.978 102.742 125.052 102.902 125.066C102.991 125.074 103.081 125.064 103.166 125.035C103.25 125.007 103.328 124.961 103.394 124.9C103.46 124.84 103.513 124.767 103.549 124.685C103.585 124.603 103.604 124.515 103.604 124.425C103.604 124.336 103.585 124.247 103.549 124.165C103.513 124.084 103.46 124.01 103.394 123.95C103.328 123.89 103.25 123.844 103.166 123.815C103.081 123.787 102.991 123.776 102.902 123.784Z" fill="#263238"/>
<path d="M102.902 127.952C102.774 127.952 102.65 127.99 102.544 128.061C102.438 128.132 102.355 128.233 102.307 128.351C102.258 128.469 102.246 128.598 102.271 128.723C102.296 128.848 102.358 128.963 102.449 129.053C102.539 129.143 102.654 129.204 102.78 129.228C102.905 129.252 103.034 129.239 103.152 129.189C103.269 129.139 103.37 129.056 103.44 128.95C103.51 128.843 103.547 128.718 103.546 128.591C103.546 128.506 103.529 128.423 103.497 128.345C103.464 128.267 103.417 128.197 103.357 128.137C103.297 128.078 103.226 128.031 103.148 127.999C103.07 127.967 102.986 127.951 102.902 127.952Z" fill="#263238"/>
<path d="M102.902 132.12C102.775 132.12 102.65 132.158 102.544 132.229C102.438 132.299 102.356 132.4 102.307 132.518C102.259 132.635 102.246 132.765 102.271 132.889C102.295 133.014 102.357 133.129 102.447 133.219C102.537 133.309 102.652 133.37 102.776 133.395C102.901 133.42 103.031 133.407 103.148 133.359C103.266 133.31 103.366 133.227 103.437 133.122C103.508 133.016 103.546 132.891 103.546 132.764C103.546 132.593 103.478 132.429 103.357 132.309C103.236 132.188 103.073 132.12 102.902 132.12Z" fill="#263238"/>
<path d="M102.902 136.288C102.775 136.288 102.65 136.326 102.544 136.397C102.438 136.468 102.356 136.568 102.307 136.686C102.259 136.803 102.246 136.933 102.271 137.058C102.295 137.182 102.357 137.297 102.447 137.387C102.537 137.477 102.652 137.538 102.776 137.563C102.901 137.588 103.031 137.575 103.148 137.527C103.266 137.478 103.366 137.395 103.437 137.29C103.508 137.184 103.546 137.059 103.546 136.932C103.546 136.761 103.478 136.598 103.357 136.477C103.236 136.356 103.073 136.288 102.902 136.288Z" fill="#263238"/>
<path d="M102.902 140.456C102.775 140.456 102.65 140.494 102.544 140.565C102.438 140.636 102.356 140.736 102.307 140.854C102.259 140.971 102.246 141.101 102.271 141.226C102.295 141.351 102.357 141.465 102.447 141.555C102.537 141.645 102.652 141.707 102.776 141.731C102.901 141.756 103.031 141.744 103.148 141.695C103.266 141.646 103.366 141.564 103.437 141.458C103.508 141.352 103.546 141.227 103.546 141.1C103.546 141.016 103.529 140.932 103.497 140.854C103.464 140.776 103.417 140.705 103.357 140.645C103.297 140.585 103.226 140.538 103.148 140.505C103.07 140.473 102.986 140.456 102.902 140.456Z" fill="#263238"/>
<path d="M102.902 144.625C102.775 144.625 102.65 144.662 102.544 144.733C102.438 144.804 102.356 144.904 102.307 145.022C102.259 145.139 102.246 145.269 102.271 145.394C102.295 145.519 102.357 145.633 102.447 145.723C102.537 145.813 102.652 145.875 102.776 145.899C102.901 145.924 103.031 145.912 103.148 145.863C103.266 145.814 103.366 145.732 103.437 145.626C103.508 145.52 103.546 145.396 103.546 145.268C103.546 145.097 103.478 144.934 103.357 144.813C103.236 144.692 103.073 144.625 102.902 144.625Z" fill="#263238"/>
<path d="M102.902 148.798C102.742 148.812 102.593 148.886 102.485 149.005C102.377 149.123 102.316 149.278 102.316 149.439C102.316 149.6 102.377 149.754 102.485 149.873C102.593 149.992 102.742 150.065 102.902 150.08C102.991 150.088 103.081 150.077 103.166 150.049C103.25 150.02 103.328 149.974 103.394 149.914C103.46 149.854 103.513 149.78 103.549 149.699C103.585 149.617 103.604 149.528 103.604 149.439C103.604 149.349 103.585 149.261 103.549 149.179C103.513 149.097 103.46 149.024 103.394 148.964C103.328 148.903 103.25 148.857 103.166 148.829C103.081 148.8 102.991 148.79 102.902 148.798Z" fill="#263238"/>
<path d="M102.902 152.945C102.742 152.959 102.593 153.033 102.485 153.152C102.377 153.27 102.316 153.425 102.316 153.586C102.316 153.747 102.377 153.901 102.485 154.02C102.593 154.139 102.742 154.212 102.902 154.227C102.991 154.235 103.081 154.225 103.166 154.196C103.25 154.167 103.328 154.122 103.394 154.061C103.46 154.001 103.513 153.928 103.549 153.846C103.585 153.764 103.604 153.675 103.604 153.586C103.604 153.497 103.585 153.408 103.549 153.326C103.513 153.244 103.46 153.171 103.394 153.111C103.328 153.05 103.25 153.004 103.166 152.976C103.081 152.947 102.991 152.937 102.902 152.945Z" fill="#263238"/>
<path d="M102.902 157.134C102.742 157.149 102.593 157.222 102.485 157.341C102.377 157.46 102.316 157.614 102.316 157.775C102.316 157.936 102.377 158.091 102.485 158.209C102.593 158.328 102.742 158.402 102.902 158.416C102.991 158.424 103.081 158.414 103.166 158.385C103.25 158.357 103.328 158.311 103.394 158.25C103.46 158.19 103.513 158.117 103.549 158.035C103.585 157.953 103.604 157.865 103.604 157.775C103.604 157.686 103.585 157.597 103.549 157.515C103.513 157.434 103.46 157.36 103.394 157.3C103.328 157.239 103.25 157.194 103.166 157.165C103.081 157.137 102.991 157.126 102.902 157.134Z" fill="#263238"/>
<path d="M102.902 161.302C102.742 161.317 102.593 161.39 102.485 161.509C102.377 161.628 102.316 161.783 102.316 161.943C102.316 162.104 102.377 162.259 102.485 162.377C102.593 162.496 102.742 162.57 102.902 162.584C102.991 162.592 103.081 162.582 103.166 162.553C103.25 162.525 103.328 162.479 103.394 162.418C103.46 162.358 103.513 162.285 103.549 162.203C103.585 162.121 103.604 162.033 103.604 161.943C103.604 161.854 103.585 161.765 103.549 161.683C103.513 161.602 103.46 161.528 103.394 161.468C103.328 161.408 103.25 161.362 103.166 161.333C103.081 161.305 102.991 161.294 102.902 161.302Z" fill="#263238"/>
<path d="M102.902 165.47C102.774 165.47 102.65 165.508 102.544 165.579C102.438 165.65 102.355 165.751 102.307 165.869C102.258 165.987 102.246 166.116 102.271 166.241C102.296 166.366 102.358 166.481 102.449 166.571C102.539 166.661 102.654 166.722 102.78 166.746C102.905 166.77 103.034 166.757 103.152 166.707C103.269 166.658 103.37 166.574 103.44 166.468C103.51 166.361 103.547 166.236 103.546 166.109C103.546 166.024 103.529 165.941 103.497 165.863C103.464 165.785 103.417 165.715 103.357 165.655C103.297 165.596 103.226 165.549 103.148 165.517C103.07 165.486 102.986 165.47 102.902 165.47Z" fill="#263238"/>
<path d="M102.902 169.638C102.775 169.638 102.65 169.676 102.544 169.747C102.438 169.818 102.356 169.918 102.307 170.036C102.259 170.153 102.246 170.283 102.271 170.408C102.295 170.532 102.357 170.647 102.447 170.737C102.537 170.827 102.652 170.888 102.776 170.913C102.901 170.938 103.031 170.925 103.148 170.877C103.266 170.828 103.366 170.745 103.437 170.64C103.508 170.534 103.546 170.409 103.546 170.282C103.546 170.197 103.53 170.113 103.498 170.035C103.466 169.956 103.419 169.885 103.359 169.825C103.299 169.765 103.228 169.718 103.149 169.686C103.071 169.654 102.987 169.638 102.902 169.638Z" fill="#263238"/>
<path d="M102.902 173.806C102.775 173.806 102.65 173.844 102.544 173.915C102.438 173.986 102.356 174.086 102.307 174.204C102.259 174.321 102.246 174.451 102.271 174.576C102.295 174.701 102.357 174.815 102.447 174.905C102.537 174.995 102.652 175.057 102.776 175.081C102.901 175.106 103.031 175.094 103.148 175.045C103.266 174.996 103.366 174.914 103.437 174.808C103.508 174.702 103.546 174.577 103.546 174.45C103.546 174.279 103.478 174.116 103.357 173.995C103.236 173.874 103.073 173.806 102.902 173.806Z" fill="#263238"/>
<path d="M102.902 177.975C102.775 177.975 102.65 178.012 102.544 178.083C102.438 178.154 102.356 178.254 102.307 178.372C102.259 178.49 102.246 178.619 102.271 178.744C102.295 178.869 102.357 178.983 102.447 179.073C102.537 179.163 102.652 179.225 102.776 179.25C102.901 179.274 103.031 179.262 103.148 179.213C103.266 179.164 103.366 179.082 103.437 178.976C103.508 178.87 103.546 178.746 103.546 178.618C103.546 178.448 103.478 178.284 103.357 178.163C103.236 178.042 103.073 177.975 102.902 177.975Z" fill="#263238"/>
<path d="M102.902 182.143C102.775 182.143 102.65 182.18 102.544 182.251C102.438 182.322 102.356 182.422 102.307 182.54C102.259 182.658 102.246 182.787 102.271 182.912C102.295 183.037 102.357 183.151 102.447 183.241C102.537 183.331 102.652 183.393 102.776 183.418C102.901 183.442 103.031 183.43 103.148 183.381C103.266 183.332 103.366 183.25 103.437 183.144C103.508 183.038 103.546 182.914 103.546 182.786C103.546 182.616 103.478 182.452 103.357 182.331C103.236 182.21 103.073 182.143 102.902 182.143Z" fill="#263238"/>
<path d="M102.902 186.316C102.776 186.317 102.653 186.355 102.549 186.426C102.444 186.497 102.363 186.597 102.316 186.714C102.268 186.83 102.257 186.959 102.282 187.082C102.307 187.206 102.368 187.319 102.458 187.408C102.547 187.496 102.661 187.557 102.785 187.581C102.908 187.605 103.036 187.592 103.153 187.544C103.269 187.495 103.368 187.413 103.438 187.309C103.508 187.204 103.546 187.08 103.546 186.954C103.546 186.87 103.529 186.787 103.497 186.709C103.464 186.631 103.417 186.56 103.357 186.501C103.297 186.442 103.226 186.395 103.148 186.363C103.07 186.331 102.986 186.315 102.902 186.316Z" fill="#263238"/>
<path d="M105.181 97.9683C105.534 97.9683 105.82 97.6824 105.82 97.3299C105.82 96.9773 105.534 96.6915 105.181 96.6915C104.829 96.6915 104.543 96.9773 104.543 97.3299C104.543 97.6824 104.829 97.9683 105.181 97.9683Z" fill="#263238"/>
<path d="M105.181 100.854C105.054 100.854 104.929 100.892 104.824 100.963C104.718 101.033 104.635 101.134 104.587 101.252C104.538 101.369 104.525 101.499 104.55 101.624C104.575 101.748 104.636 101.863 104.726 101.953C104.816 102.043 104.931 102.104 105.056 102.129C105.181 102.154 105.31 102.141 105.428 102.093C105.545 102.044 105.646 101.961 105.716 101.856C105.787 101.75 105.825 101.625 105.825 101.498C105.825 101.327 105.757 101.163 105.636 101.043C105.516 100.922 105.352 100.854 105.181 100.854Z" fill="#263238"/>
<path d="M105.181 106.304C105.534 106.304 105.82 106.019 105.82 105.666C105.82 105.313 105.534 105.028 105.181 105.028C104.829 105.028 104.543 105.313 104.543 105.666C104.543 106.019 104.829 106.304 105.181 106.304Z" fill="#263238"/>
<path d="M105.181 110.473C105.534 110.473 105.82 110.187 105.82 109.834C105.82 109.482 105.534 109.196 105.181 109.196C104.829 109.196 104.543 109.482 104.543 109.834C104.543 110.187 104.829 110.473 105.181 110.473Z" fill="#263238"/>
<path d="M105.181 113.374C105.054 113.374 104.929 113.412 104.823 113.483C104.717 113.554 104.635 113.655 104.586 113.773C104.537 113.891 104.525 114.021 104.55 114.146C104.576 114.271 104.637 114.385 104.728 114.475C104.819 114.565 104.934 114.626 105.059 114.65C105.184 114.674 105.314 114.661 105.431 114.611C105.549 114.562 105.649 114.478 105.719 114.372C105.789 114.265 105.826 114.14 105.825 114.013C105.825 113.928 105.808 113.845 105.776 113.767C105.743 113.689 105.696 113.619 105.636 113.559C105.576 113.5 105.505 113.453 105.427 113.421C105.349 113.39 105.266 113.374 105.181 113.374Z" fill="#263238"/>
<path d="M105.181 118.809C105.534 118.809 105.82 118.523 105.82 118.17C105.82 117.818 105.534 117.532 105.181 117.532C104.829 117.532 104.543 117.818 104.543 118.17C104.543 118.523 104.829 118.809 105.181 118.809Z" fill="#263238"/>
<path d="M105.181 121.7C105.054 121.7 104.929 121.738 104.823 121.809C104.717 121.88 104.635 121.981 104.586 122.099C104.537 122.217 104.525 122.346 104.55 122.471C104.576 122.596 104.637 122.711 104.728 122.801C104.819 122.891 104.934 122.951 105.059 122.976C105.184 123 105.314 122.986 105.431 122.937C105.549 122.887 105.649 122.804 105.719 122.697C105.789 122.591 105.826 122.466 105.825 122.338C105.825 122.254 105.808 122.171 105.776 122.093C105.743 122.015 105.696 121.945 105.636 121.885C105.576 121.826 105.505 121.779 105.427 121.747C105.349 121.715 105.266 121.699 105.181 121.7Z" fill="#263238"/>
<path d="M105.181 127.145C105.534 127.145 105.82 126.859 105.82 126.507C105.82 126.154 105.534 125.868 105.181 125.868C104.829 125.868 104.543 126.154 104.543 126.507C104.543 126.859 104.829 127.145 105.181 127.145Z" fill="#263238"/>
<path d="M105.181 131.318C105.534 131.318 105.82 131.032 105.82 130.68C105.82 130.327 105.534 130.041 105.181 130.041C104.829 130.041 104.543 130.327 104.543 130.68C104.543 131.032 104.829 131.318 105.181 131.318Z" fill="#263238"/>
<path d="M105.181 134.204C105.054 134.204 104.929 134.242 104.824 134.313C104.718 134.383 104.635 134.484 104.587 134.602C104.538 134.719 104.525 134.849 104.55 134.974C104.575 135.098 104.636 135.213 104.726 135.303C104.816 135.393 104.931 135.454 105.056 135.479C105.181 135.504 105.31 135.491 105.428 135.443C105.545 135.394 105.646 135.311 105.716 135.206C105.787 135.1 105.825 134.975 105.825 134.848C105.825 134.677 105.757 134.514 105.636 134.393C105.516 134.272 105.352 134.204 105.181 134.204Z" fill="#263238"/>
<path d="M105.181 139.654C105.534 139.654 105.82 139.369 105.82 139.016C105.82 138.664 105.534 138.378 105.181 138.378C104.829 138.378 104.543 138.664 104.543 139.016C104.543 139.369 104.829 139.654 105.181 139.654Z" fill="#263238"/>
<path d="M105.181 143.823C105.534 143.823 105.82 143.537 105.82 143.184C105.82 142.832 105.534 142.546 105.181 142.546C104.829 142.546 104.543 142.832 104.543 143.184C104.543 143.537 104.829 143.823 105.181 143.823Z" fill="#263238"/>
<path d="M105.181 147.991C105.534 147.991 105.82 147.705 105.82 147.352C105.82 147 105.534 146.714 105.181 146.714C104.829 146.714 104.543 147 104.543 147.352C104.543 147.705 104.829 147.991 105.181 147.991Z" fill="#263238"/>
<path d="M105.181 152.159C105.534 152.159 105.82 151.873 105.82 151.52C105.82 151.168 105.534 150.882 105.181 150.882C104.829 150.882 104.543 151.168 104.543 151.52C104.543 151.873 104.829 152.159 105.181 152.159Z" fill="#263238"/>
<path d="M105.181 155.055C105.054 155.055 104.929 155.093 104.823 155.164C104.717 155.235 104.635 155.336 104.586 155.454C104.537 155.572 104.525 155.702 104.55 155.827C104.576 155.952 104.637 156.066 104.728 156.156C104.819 156.246 104.934 156.307 105.059 156.331C105.184 156.355 105.314 156.342 105.431 156.292C105.549 156.243 105.649 156.159 105.719 156.053C105.789 155.946 105.826 155.821 105.825 155.694C105.825 155.609 105.808 155.526 105.776 155.448C105.743 155.37 105.696 155.3 105.636 155.24C105.576 155.181 105.505 155.134 105.427 155.102C105.349 155.071 105.266 155.055 105.181 155.055Z" fill="#263238"/>
<path d="M105.181 160.495C105.534 160.495 105.82 160.209 105.82 159.857C105.82 159.504 105.534 159.218 105.181 159.218C104.829 159.218 104.543 159.504 104.543 159.857C104.543 160.209 104.829 160.495 105.181 160.495Z" fill="#263238"/>
<path d="M105.181 163.386C105.054 163.386 104.929 163.424 104.823 163.495C104.717 163.566 104.635 163.667 104.586 163.785C104.537 163.903 104.525 164.032 104.55 164.157C104.576 164.282 104.637 164.397 104.728 164.487C104.819 164.577 104.934 164.638 105.059 164.662C105.184 164.686 105.314 164.673 105.431 164.623C105.549 164.574 105.649 164.49 105.719 164.384C105.789 164.277 105.826 164.152 105.825 164.025C105.825 163.94 105.808 163.857 105.776 163.779C105.743 163.701 105.696 163.631 105.636 163.571C105.576 163.512 105.505 163.465 105.427 163.433C105.349 163.402 105.266 163.386 105.181 163.386Z" fill="#263238"/>
<path d="M105.181 167.554C105.054 167.554 104.929 167.592 104.824 167.663C104.718 167.734 104.635 167.834 104.587 167.952C104.538 168.069 104.525 168.199 104.55 168.324C104.575 168.448 104.636 168.563 104.726 168.653C104.816 168.743 104.931 168.805 105.056 168.829C105.181 168.854 105.31 168.841 105.428 168.793C105.545 168.744 105.646 168.661 105.716 168.556C105.787 168.45 105.825 168.325 105.825 168.198C105.826 168.113 105.809 168.029 105.777 167.951C105.745 167.872 105.698 167.801 105.638 167.741C105.578 167.681 105.507 167.634 105.428 167.602C105.35 167.57 105.266 167.554 105.181 167.554Z" fill="#263238"/>
<path d="M105.181 173.004C105.534 173.004 105.82 172.719 105.82 172.366C105.82 172.013 105.534 171.728 105.181 171.728C104.829 171.728 104.543 172.013 104.543 172.366C104.543 172.719 104.829 173.004 105.181 173.004Z" fill="#263238"/>
<path d="M105.181 175.891C105.054 175.891 104.929 175.928 104.824 175.999C104.718 176.07 104.635 176.17 104.587 176.288C104.538 176.405 104.525 176.535 104.55 176.66C104.575 176.785 104.636 176.899 104.726 176.989C104.816 177.079 104.931 177.141 105.056 177.165C105.181 177.19 105.31 177.178 105.428 177.129C105.545 177.08 105.646 176.998 105.716 176.892C105.787 176.786 105.825 176.661 105.825 176.534C105.825 176.363 105.757 176.2 105.636 176.079C105.516 175.958 105.352 175.891 105.181 175.891Z" fill="#263238"/>
<path d="M105.181 181.341C105.534 181.341 105.82 181.055 105.82 180.702C105.82 180.35 105.534 180.064 105.181 180.064C104.829 180.064 104.543 180.35 104.543 180.702C104.543 181.055 104.829 181.341 105.181 181.341Z" fill="#263238"/>
<path d="M105.181 185.509C105.534 185.509 105.82 185.223 105.82 184.87C105.82 184.518 105.534 184.232 105.181 184.232C104.829 184.232 104.543 184.518 104.543 184.87C104.543 185.223 104.829 185.509 105.181 185.509Z" fill="#263238"/>
<path d="M107.466 95.8842C107.593 95.8842 107.718 95.8463 107.824 95.7754C107.93 95.7044 108.012 95.6036 108.061 95.4856C108.109 95.3677 108.122 95.238 108.097 95.113C108.071 94.988 108.01 94.8733 107.919 94.7835C107.828 94.6937 107.713 94.6328 107.588 94.6086C107.463 94.5844 107.333 94.5979 107.216 94.6474C107.098 94.6969 106.998 94.7802 106.928 94.8868C106.858 94.9933 106.821 95.1183 106.822 95.2458C106.822 95.3301 106.839 95.4135 106.871 95.4913C106.904 95.5691 106.951 95.6398 107.011 95.6991C107.071 95.7585 107.142 95.8054 107.22 95.8371C107.298 95.8689 107.381 95.8849 107.466 95.8842Z" fill="#263238"/>
<path d="M107.466 100.052C107.818 100.052 108.104 99.7665 108.104 99.4139C108.104 99.0613 107.818 98.7755 107.466 98.7755C107.113 98.7755 106.827 99.0613 106.827 99.4139C106.827 99.7665 107.113 100.052 107.466 100.052Z" fill="#263238"/>
<path d="M107.466 104.22C107.818 104.22 108.104 103.935 108.104 103.582C108.104 103.229 107.818 102.944 107.466 102.944C107.113 102.944 106.827 103.229 106.827 103.582C106.827 103.935 107.113 104.22 107.466 104.22Z" fill="#263238"/>
<path d="M107.466 107.106C107.338 107.105 107.213 107.142 107.107 107.212C107 107.282 106.917 107.383 106.867 107.5C106.818 107.618 106.804 107.747 106.829 107.872C106.853 107.998 106.914 108.113 107.003 108.203C107.093 108.294 107.208 108.356 107.333 108.381C107.458 108.406 107.588 108.394 107.706 108.345C107.823 108.297 107.924 108.214 107.995 108.108C108.066 108.002 108.104 107.878 108.104 107.75C108.104 107.58 108.037 107.417 107.918 107.297C107.798 107.176 107.636 107.108 107.466 107.106Z" fill="#263238"/>
<path d="M107.466 112.557C107.818 112.557 108.104 112.271 108.104 111.918C108.104 111.566 107.818 111.28 107.466 111.28C107.113 111.28 106.827 111.566 106.827 111.918C106.827 112.271 107.113 112.557 107.466 112.557Z" fill="#263238"/>
<path d="M107.466 115.448C107.338 115.447 107.213 115.484 107.106 115.554C106.999 115.625 106.916 115.725 106.867 115.843C106.817 115.961 106.804 116.09 106.829 116.216C106.854 116.341 106.915 116.456 107.005 116.547C107.096 116.637 107.211 116.698 107.336 116.723C107.462 116.748 107.591 116.735 107.709 116.685C107.827 116.636 107.928 116.553 107.998 116.446C108.068 116.339 108.105 116.214 108.104 116.086C108.104 115.917 108.037 115.755 107.917 115.635C107.797 115.515 107.635 115.448 107.466 115.448Z" fill="#263238"/>
<path d="M107.466 119.616C107.337 119.614 107.21 119.651 107.103 119.721C106.995 119.792 106.911 119.893 106.861 120.012C106.812 120.131 106.799 120.262 106.825 120.389C106.851 120.515 106.914 120.631 107.006 120.72C107.099 120.81 107.216 120.871 107.343 120.893C107.469 120.916 107.6 120.9 107.718 120.847C107.836 120.795 107.935 120.708 108.003 120.599C108.071 120.489 108.104 120.362 108.099 120.233C108.093 120.069 108.025 119.912 107.907 119.797C107.789 119.682 107.631 119.617 107.466 119.616Z" fill="#263238"/>
<path d="M107.466 125.061C107.818 125.061 108.104 124.775 108.104 124.422C108.104 124.07 107.818 123.784 107.466 123.784C107.113 123.784 106.827 124.07 106.827 124.422C106.827 124.775 107.113 125.061 107.466 125.061Z" fill="#263238"/>
<path d="M107.466 127.952C107.338 127.951 107.213 127.988 107.106 128.058C106.999 128.129 106.916 128.229 106.867 128.347C106.817 128.465 106.804 128.595 106.829 128.72C106.854 128.845 106.915 128.961 107.005 129.051C107.096 129.141 107.211 129.203 107.336 129.227C107.462 129.252 107.591 129.239 107.709 129.19C107.827 129.14 107.928 129.057 107.998 128.95C108.068 128.844 108.105 128.718 108.104 128.591C108.104 128.421 108.037 128.259 107.917 128.139C107.797 128.019 107.635 127.952 107.466 127.952Z" fill="#263238"/>
<path d="M107.466 133.402C107.818 133.402 108.104 133.116 108.104 132.764C108.104 132.411 107.818 132.125 107.466 132.125C107.113 132.125 106.827 132.411 106.827 132.764C106.827 133.116 107.113 133.402 107.466 133.402Z" fill="#263238"/>
<path d="M107.466 136.288C107.338 136.287 107.213 136.324 107.107 136.394C107 136.464 106.917 136.565 106.867 136.682C106.818 136.8 106.804 136.929 106.829 137.054C106.853 137.18 106.914 137.295 107.003 137.385C107.093 137.476 107.208 137.538 107.333 137.563C107.458 137.588 107.588 137.576 107.706 137.527C107.823 137.479 107.924 137.396 107.995 137.29C108.066 137.184 108.104 137.06 108.104 136.932C108.104 136.762 108.037 136.599 107.918 136.479C107.798 136.358 107.636 136.29 107.466 136.288Z" fill="#263238"/>
<path d="M107.466 140.456C107.338 140.455 107.213 140.492 107.107 140.562C107 140.632 106.917 140.733 106.867 140.85C106.818 140.968 106.804 141.097 106.829 141.222C106.853 141.348 106.914 141.463 107.003 141.553C107.093 141.644 107.208 141.706 107.333 141.731C107.458 141.756 107.588 141.744 107.706 141.695C107.823 141.647 107.924 141.564 107.995 141.458C108.066 141.352 108.104 141.228 108.104 141.1C108.104 140.93 108.037 140.767 107.918 140.647C107.798 140.526 107.636 140.458 107.466 140.456Z" fill="#263238"/>
<path d="M107.466 145.907C107.818 145.907 108.104 145.621 108.104 145.268C108.104 144.916 107.818 144.63 107.466 144.63C107.113 144.63 106.827 144.916 106.827 145.268C106.827 145.621 107.113 145.907 107.466 145.907Z" fill="#263238"/>
<path d="M107.466 148.798C107.338 148.797 107.213 148.834 107.106 148.904C106.999 148.974 106.916 149.075 106.867 149.193C106.817 149.311 106.804 149.44 106.829 149.566C106.854 149.691 106.915 149.806 107.005 149.897C107.096 149.987 107.211 150.048 107.336 150.073C107.462 150.098 107.591 150.085 107.709 150.035C107.827 149.986 107.928 149.903 107.998 149.796C108.068 149.689 108.105 149.564 108.104 149.436C108.104 149.267 108.037 149.105 107.917 148.985C107.797 148.865 107.635 148.798 107.466 148.798Z" fill="#263238"/>
<path d="M107.466 152.945C107.338 152.944 107.213 152.981 107.106 153.051C106.999 153.121 106.916 153.222 106.867 153.34C106.817 153.458 106.804 153.587 106.829 153.713C106.854 153.838 106.915 153.953 107.005 154.044C107.096 154.134 107.211 154.195 107.336 154.22C107.462 154.245 107.591 154.232 107.709 154.182C107.827 154.133 107.928 154.049 107.998 153.943C108.068 153.836 108.105 153.711 108.104 153.583C108.104 153.414 108.037 153.252 107.917 153.132C107.797 153.012 107.635 152.945 107.466 152.945Z" fill="#263238"/>
<path d="M107.466 158.411C107.818 158.411 108.104 158.125 108.104 157.772C108.104 157.42 107.818 157.134 107.466 157.134C107.113 157.134 106.827 157.42 106.827 157.772C106.827 158.125 107.113 158.411 107.466 158.411Z" fill="#263238"/>
<path d="M107.466 161.302C107.338 161.301 107.213 161.338 107.106 161.408C106.999 161.479 106.916 161.579 106.867 161.697C106.817 161.815 106.804 161.945 106.829 162.07C106.854 162.195 106.915 162.311 107.005 162.401C107.096 162.491 107.211 162.553 107.336 162.577C107.462 162.602 107.591 162.589 107.709 162.539C107.827 162.49 107.928 162.407 107.998 162.3C108.068 162.193 108.105 162.068 108.104 161.941C108.104 161.771 108.037 161.609 107.917 161.489C107.797 161.369 107.635 161.302 107.466 161.302Z" fill="#263238"/>
<path d="M107.466 166.747C107.818 166.747 108.104 166.461 108.104 166.109C108.104 165.756 107.818 165.47 107.466 165.47C107.113 165.47 106.827 165.756 106.827 166.109C106.827 166.461 107.113 166.747 107.466 166.747Z" fill="#263238"/>
<path d="M107.466 169.638C107.338 169.637 107.213 169.674 107.107 169.744C107 169.814 106.917 169.914 106.867 170.032C106.818 170.15 106.804 170.279 106.829 170.404C106.853 170.53 106.914 170.645 107.003 170.735C107.093 170.826 107.208 170.888 107.333 170.913C107.458 170.938 107.588 170.926 107.706 170.877C107.823 170.829 107.924 170.746 107.995 170.64C108.066 170.534 108.104 170.41 108.104 170.282C108.105 170.198 108.089 170.114 108.057 170.036C108.025 169.958 107.978 169.887 107.919 169.827C107.86 169.767 107.789 169.72 107.711 169.687C107.633 169.655 107.55 169.638 107.466 169.638Z" fill="#263238"/>
<path d="M107.466 175.089C107.818 175.089 108.104 174.803 108.104 174.45C108.104 174.098 107.818 173.812 107.466 173.812C107.113 173.812 106.827 174.098 106.827 174.45C106.827 174.803 107.113 175.089 107.466 175.089Z" fill="#263238"/>
<path d="M107.466 179.257C107.818 179.257 108.104 178.971 108.104 178.618C108.104 178.266 107.818 177.98 107.466 177.98C107.113 177.98 106.827 178.266 106.827 178.618C106.827 178.971 107.113 179.257 107.466 179.257Z" fill="#263238"/>
<path d="M107.466 182.143C107.338 182.142 107.213 182.178 107.107 182.249C107 182.319 106.917 182.419 106.867 182.536C106.818 182.654 106.804 182.783 106.829 182.909C106.853 183.034 106.914 183.149 107.003 183.24C107.093 183.33 107.208 183.392 107.333 183.417C107.458 183.442 107.588 183.43 107.706 183.381C107.823 183.333 107.924 183.25 107.995 183.144C108.066 183.038 108.104 182.914 108.104 182.786C108.104 182.616 108.037 182.454 107.918 182.333C107.798 182.212 107.636 182.144 107.466 182.143Z" fill="#263238"/>
<path d="M107.466 187.593C107.818 187.593 108.104 187.307 108.104 186.954C108.104 186.602 107.818 186.316 107.466 186.316C107.113 186.316 106.827 186.602 106.827 186.954C106.827 187.307 107.113 187.593 107.466 187.593Z" fill="#263238"/>
<path d="M99.8946 48.7215C99.4092 48.7186 98.9346 48.8653 98.5355 49.1416C98.1363 49.4178 97.8319 49.8103 97.6636 50.2656C97.4953 50.721 97.4713 51.2171 97.5948 51.6865C97.7183 52.156 97.9834 52.576 98.354 52.8896C97.9834 53.2031 97.7183 53.6232 97.5948 54.0926C97.4713 54.5621 97.4953 55.0582 97.6636 55.5135C97.8319 55.9688 98.1363 56.3613 98.5355 56.6376C98.9346 56.9138 99.4092 57.0605 99.8946 57.0577H99.9473C100.144 57.5103 100.468 57.8958 100.88 58.1667C101.293 58.4376 101.775 58.5821 102.269 58.5824C102.872 58.5809 103.455 58.3617 103.91 57.9651C104.098 58.0137 104.291 58.0385 104.485 58.039" stroke="#263238" stroke-linecap="round" stroke-linejoin="round"/>
<path d="M108.194 51.7552C108.194 51.0849 107.928 50.4421 107.454 49.9682C106.98 49.4942 106.337 49.2279 105.667 49.2279C105.571 49.2333 105.476 49.2439 105.382 49.2596C105.244 48.7949 104.967 48.3838 104.588 48.0816C104.209 47.7794 103.746 47.6007 103.262 47.5696C102.779 47.5386 102.297 47.6566 101.883 47.9079C101.468 48.1591 101.141 48.5315 100.945 48.9747" stroke="#263238" stroke-linecap="round" stroke-linejoin="round"/>
<path d="M106.347 57.2053C106.743 57.0974 107.107 56.8939 107.405 56.6126C107.704 56.3314 107.93 55.981 108.061 55.5924C108.193 55.2037 108.228 54.7886 108.161 54.3836C108.095 53.9786 107.931 53.596 107.682 53.2694" stroke="#263238" stroke-linecap="round" stroke-linejoin="round"/>
<path d="M118.683 50.7686C118.906 50.8213 119.134 50.8496 119.363 50.853C119.78 50.8511 120.191 50.7628 120.571 50.5939C120.952 50.425 121.293 50.1791 121.574 49.8717C122.045 49.7429 122.477 49.5003 122.833 49.1653C123.188 48.8302 123.456 48.413 123.612 47.9503C123.768 47.4876 123.809 46.9935 123.729 46.5116C123.65 46.0297 123.453 45.5746 123.157 45.1865" stroke="#263238" stroke-linecap="round" stroke-linejoin="round"/>
<path d="M111.075 46.8643C111.075 47.6143 111.373 48.3336 111.903 48.864C112.433 49.3943 113.153 49.6923 113.903 49.6923H113.966C114.197 50.2325 114.582 50.6928 115.072 51.0164C115.563 51.34 116.138 51.5125 116.725 51.5125" stroke="#263238" stroke-linecap="round" stroke-linejoin="round"/>
<path d="M123.785 43.3821C123.785 42.5845 123.468 41.8196 122.904 41.2556C122.34 40.6916 121.575 40.3747 120.777 40.3747C120.656 40.3747 120.545 40.3747 120.434 40.4064C120.269 39.8545 119.939 39.3664 119.488 39.0079C119.037 38.6495 118.487 38.4379 117.912 38.4016C117.337 38.3654 116.765 38.5063 116.273 38.8053C115.78 39.1044 115.391 39.5471 115.158 40.074C114.771 39.8758 114.343 39.771 113.908 39.768C113.33 39.7655 112.765 39.9407 112.291 40.2699C111.816 40.599 111.454 41.0662 111.253 41.6081C111.053 42.1501 111.024 42.7405 111.17 43.2994C111.317 43.8583 111.631 44.3587 112.072 44.7328" stroke="#263238" stroke-linecap="round" stroke-linejoin="round"/>
<path d="M97.1774 35.9534C97.2099 36.623 97.429 37.2701 97.81 37.8217C98.191 38.3733 98.7187 38.8072 99.3335 39.0746C99.9483 39.3419 100.626 39.4319 101.289 39.3344C101.952 39.2369 102.575 38.9557 103.087 38.5228C103.187 38.4296 103.282 38.3309 103.372 38.2274" stroke="#263238" stroke-linecap="round" stroke-linejoin="round"/>
<path d="M96.2963 27.8229C95.9141 28.1433 95.6033 28.5404 95.3843 28.9884C95.1653 29.4365 95.0428 29.9256 95.0248 30.424C94.5806 31.0698 94.3597 31.8432 94.3959 32.6262C94.4321 33.4092 94.7234 34.1589 95.2253 34.761" stroke="#263238" stroke-linecap="round" stroke-linejoin="round"/>
<path d="M107.724 27.8071C107.839 27.1252 107.741 26.4246 107.445 25.8C107.148 25.1754 106.667 24.6568 106.066 24.3145C105.465 23.9721 104.774 23.8224 104.086 23.8856C103.397 23.9488 102.744 24.2219 102.216 24.6679L102.163 24.7206C101.659 24.464 101.101 24.3303 100.534 24.3306C99.9683 24.331 99.4103 24.4653 98.906 24.7226C98.4018 24.9798 97.9655 25.3528 97.633 25.811C97.3005 26.2691 97.0811 26.7995 96.9928 27.3587" stroke="#263238" stroke-linecap="round" stroke-linejoin="round"/>
<path d="M104.738 38.7497C105.21 38.8244 105.693 38.7966 106.154 38.6682C106.614 38.5399 107.042 38.314 107.408 38.0058C107.908 37.5816 108.274 37.021 108.461 36.3925C108.649 35.7639 108.649 35.0944 108.463 34.4655C108.971 34.348 109.444 34.1131 109.845 33.7796C110.528 33.2035 110.954 32.3809 111.032 31.4913C111.111 30.6017 110.834 29.7174 110.262 29.0312" stroke="#263238" stroke-linecap="round" stroke-linejoin="round"/>
</svg>
