<svg height="200" viewBox="0 0 333 249" fill="none" xmlns="http://www.w3.org/2000/svg">
<path d="M333 218.048H0V218.215H333V218.048Z" fill="#E0E0E0"/>
<path d="M288.511 228.491H258.634V228.658H288.511V228.491Z" fill="#E0E0E0"/>
<path d="M254.252 228.491H248.465V228.658H254.252V228.491Z" fill="#E0E0E0"/>
<path d="M199.347 226.194H186.453V226.36H199.347V226.194Z" fill="#E0E0E0"/>
<path d="M82.6639 226.107H53.8994V226.273H82.6639V226.107Z" fill="#E0E0E0"/>
<path d="M47.972 226.107H43.7562V226.273H47.972V226.107Z" fill="#E0E0E0"/>
<path d="M188.465 222.164H126.074V222.331H188.465V222.164Z" fill="#E0E0E0"/>
<path d="M157.842 188.345H29.2441C28.2366 188.343 27.2711 187.942 26.5593 187.229C25.8476 186.516 25.4479 185.549 25.4479 184.542V3.76956C25.4566 2.76791 25.8602 1.81017 26.571 1.10437C27.2818 0.398573 28.2424 0.00171587 29.2441 0H157.842C158.851 0 159.818 0.400657 160.531 1.11383C161.244 1.82701 161.645 2.79428 161.645 3.80286V184.542C161.645 185.551 161.244 186.518 160.531 187.231C159.818 187.944 158.851 188.345 157.842 188.345ZM29.2441 0.133201C28.2808 0.134965 27.3576 0.518857 26.6771 1.20062C25.9966 1.88237 25.6144 2.80629 25.6144 3.76956V184.542C25.6144 185.505 25.9966 186.429 26.6771 187.111C27.3576 187.793 28.2808 188.177 29.2441 188.178H157.842C158.806 188.177 159.73 187.793 160.411 187.111C161.093 186.43 161.477 185.506 161.478 184.542V3.76956C161.477 2.80568 161.093 1.88178 160.411 1.20021C159.73 0.518641 158.806 0.134961 157.842 0.133201H29.2441Z" fill="#E0E0E0"/>
<path d="M301.904 188.345H173.3C172.292 188.343 171.326 187.942 170.613 187.229C169.9 186.516 169.499 185.55 169.497 184.542V3.76956C169.508 2.76731 169.913 1.80957 170.624 1.10396C171.336 0.39834 172.298 0.00169716 173.3 0H301.904C302.905 0.00346619 303.864 0.401098 304.573 1.10671C305.283 1.81232 305.685 2.76906 305.694 3.76956V184.542C305.694 185.548 305.295 186.513 304.585 187.226C303.875 187.939 302.911 188.341 301.904 188.345ZM173.3 0.133201C172.336 0.134961 171.412 0.518641 170.731 1.20021C170.049 1.88178 169.665 2.80568 169.663 3.76956V184.542C169.665 185.506 170.049 186.43 170.731 187.111C171.412 187.793 172.336 188.177 173.3 188.178H301.904C302.868 188.177 303.792 187.793 304.474 187.111C305.155 186.43 305.539 185.506 305.541 184.542V3.76956C305.539 2.80568 305.155 1.88178 304.474 1.20021C303.792 0.518641 302.868 0.134961 301.904 0.133201H173.3Z" fill="#E0E0E0"/>
<path d="M156.543 42.0312H76.9163V218.128H156.543V42.0312Z" fill="#E6E6E6"/>
<path d="M156.543 42.0312H80.6926V218.128H156.543V42.0312Z" fill="#F0F0F0"/>
<path d="M152.547 214.132V46.0273L84.6886 46.0273L84.6886 214.132H152.547Z" fill="#EBEBEB"/>
<path d="M152.547 214.139V46.0339H151.508V214.139H152.547Z" fill="#E6E6E6"/>
<path d="M143.483 126.207C145.363 126.207 146.886 124.683 146.886 122.804C146.886 120.924 145.363 119.401 143.483 119.401C141.603 119.401 140.08 120.924 140.08 122.804C140.08 124.683 141.603 126.207 143.483 126.207Z" fill="#E6E6E6"/>
<path d="M144.815 125.501C146.695 125.501 148.218 123.977 148.218 122.098C148.218 120.218 146.695 118.695 144.815 118.695C142.935 118.695 141.412 120.218 141.412 122.098C141.412 123.977 142.935 125.501 144.815 125.501Z" fill="#FAFAFA"/>
<path d="M281.891 20.353H191.515V155.618H281.891V20.353Z" fill="#E0E0E0"/>
<path d="M283.896 20.353H193.52V155.618H283.896V20.353Z" fill="#F0F0F0"/>
<path d="M280.293 151.568V24.4022L197.129 24.4022V151.568H280.293Z" fill="#FAFAFA"/>
<path d="M280.293 151.568V24.4022H278.774V151.568H280.293Z" fill="#E0E0E0"/>
<path d="M282.404 64.0492H195.011V69.4838H282.404V64.0492Z" fill="#F0F0F0"/>
<path d="M287.825 13.653H187.586C187.439 13.653 187.298 13.7113 187.195 13.8149C187.091 13.9186 187.033 14.0592 187.033 14.2058C187.033 14.353 187.091 14.4943 187.194 14.599C187.298 14.7038 187.438 14.7635 187.586 14.7652H287.825C287.973 14.7635 288.114 14.704 288.219 14.5995C288.323 14.4949 288.383 14.3536 288.385 14.2058C288.383 14.0586 288.323 13.918 288.218 13.8145C288.114 13.711 287.972 13.653 287.825 13.653Z" fill="#E0E0E0"/>
<path d="M291.155 14.2058C291.157 14.7554 290.995 15.293 290.69 15.7506C290.386 16.2081 289.953 16.5651 289.445 16.7764C288.938 16.9876 288.379 17.0435 287.84 16.9371C287.301 16.8307 286.806 16.5667 286.417 16.1786C286.028 15.7905 285.762 15.2956 285.655 14.7567C285.547 14.2178 285.602 13.6591 285.812 13.1512C286.022 12.6434 286.378 12.2092 286.834 11.9038C287.291 11.5983 287.828 11.4352 288.378 11.4352C289.113 11.4352 289.819 11.7269 290.339 12.2463C290.86 12.7657 291.153 13.4704 291.155 14.2058Z" fill="#E0E0E0"/>
<path d="M192.261 17.316C192.062 17.3142 191.873 17.2341 191.733 17.0932C191.593 16.9523 191.515 16.7618 191.515 16.5634V14.9583C191.515 14.7599 191.593 14.5695 191.733 14.4285C191.873 14.2876 192.062 14.2075 192.261 14.2057C192.46 14.2075 192.65 14.2873 192.791 14.4281C192.932 14.5689 193.012 14.7593 193.013 14.9583V16.5634C193.012 16.7624 192.932 16.9529 192.791 17.0936C192.65 17.2344 192.46 17.3142 192.261 17.316Z" fill="#E0E0E0"/>
<path d="M279.46 17.316C279.261 17.3142 279.071 17.2344 278.93 17.0936C278.789 16.9529 278.709 16.7624 278.708 16.5634V14.9583C278.709 14.7593 278.789 14.5689 278.93 14.4281C279.071 14.2873 279.261 14.2075 279.46 14.2057C279.659 14.2075 279.848 14.2876 279.988 14.4285C280.128 14.5695 280.206 14.7599 280.206 14.9583V16.5634C280.206 16.7618 280.128 16.9523 279.988 17.0932C279.848 17.2341 279.659 17.3142 279.46 17.316Z" fill="#E0E0E0"/>
<path opacity="0.4" d="M287.652 14.2057H195.011V53.0535H287.652V14.2057Z" fill="#E0E0E0"/>
<path d="M203.962 14.2058C203.964 14.7554 203.802 15.293 203.498 15.7506C203.193 16.2081 202.76 16.5651 202.253 16.7764C201.745 16.9876 201.187 17.0435 200.648 16.9371C200.108 16.8307 199.613 16.5667 199.224 16.1786C198.835 15.7905 198.57 15.2956 198.462 14.7567C198.354 14.2178 198.409 13.6591 198.619 13.1512C198.829 12.6434 199.185 12.2092 199.642 11.9038C200.098 11.5983 200.636 11.4352 201.185 11.4352C201.921 11.4352 202.626 11.7269 203.147 12.2463C203.667 12.7657 203.961 13.4704 203.962 14.2058Z" fill="#E0E0E0"/>
<path d="M205.634 175.99H187.799V215.544H205.634V175.99Z" fill="#E6E6E6"/>
<path d="M279.201 215.544H191.229V218.048H279.201V215.544Z" fill="#E6E6E6"/>
<path d="M205.634 215.544H282.617V175.991H205.634V215.544Z" fill="#F0F0F0"/>
<path d="M212.647 193.833H275.604V180.859H212.647V193.833Z" fill="#E6E6E6"/>
<path d="M212.647 210.669H275.604V197.695H212.647V210.669Z" fill="#E6E6E6"/>
<path d="M252.154 186.453H236.11C235.676 186.453 235.324 186.805 235.324 187.239V187.446C235.324 187.88 235.676 188.232 236.11 188.232H252.154C252.588 188.232 252.94 187.88 252.94 187.446V187.239C252.94 186.805 252.588 186.453 252.154 186.453Z" fill="#F0F0F0"/>
<path d="M252.154 203.297H236.11C235.676 203.297 235.324 203.648 235.324 204.082V204.289C235.324 204.723 235.676 205.075 236.11 205.075H252.154C252.588 205.075 252.94 204.723 252.94 204.289V204.082C252.94 203.648 252.588 203.297 252.154 203.297Z" fill="#F0F0F0"/>
<path d="M227.852 170.156C230.022 170.156 231.781 168.397 231.781 166.227C231.781 164.057 230.022 162.298 227.852 162.298C225.682 162.298 223.923 164.057 223.923 166.227C223.923 168.397 225.682 170.156 227.852 170.156Z" fill="#F0F0F0"/>
<path d="M234.032 169.417C236.203 169.417 237.962 167.658 237.962 165.488C237.962 163.317 236.203 161.558 234.032 161.558C231.862 161.558 230.103 163.317 230.103 165.488C230.103 167.658 231.862 169.417 234.032 169.417Z" fill="#F0F0F0"/>
<path d="M256.976 167.306C256.976 168.083 256.746 168.843 256.314 169.489C255.882 170.135 255.268 170.639 254.55 170.936C253.832 171.234 253.042 171.311 252.28 171.16C251.518 171.008 250.818 170.634 250.268 170.084C249.719 169.535 249.344 168.835 249.193 168.072C249.041 167.31 249.119 166.52 249.416 165.802C249.714 165.084 250.217 164.47 250.864 164.039C251.51 163.607 252.27 163.376 253.047 163.376C254.089 163.376 255.088 163.79 255.825 164.527C256.562 165.264 256.976 166.264 256.976 167.306Z" fill="#F0F0F0"/>
<path d="M246.833 169.117C246.834 169.896 246.604 170.658 246.172 171.307C245.74 171.955 245.126 172.46 244.406 172.759C243.687 173.058 242.895 173.136 242.131 172.985C241.366 172.833 240.665 172.458 240.114 171.907C239.563 171.356 239.188 170.654 239.036 169.89C238.884 169.126 238.963 168.334 239.262 167.615C239.56 166.895 240.066 166.281 240.714 165.849C241.363 165.417 242.124 165.187 242.904 165.188C243.946 165.188 244.945 165.602 245.682 166.339C246.419 167.076 246.833 168.075 246.833 169.117Z" fill="#F0F0F0"/>
<path d="M216.45 166.946C216.45 166.946 217.116 175.99 241.492 175.99C265.867 175.99 266.533 166.946 266.533 166.946H216.45Z" fill="#E6E6E6"/>
<path d="M41.1588 162.058H29.0176V214.712H41.1588V162.058Z" fill="#E6E6E6"/>
<path d="M91.222 214.712H31.3486V218.048H91.222V214.712Z" fill="#E6E6E6"/>
<path d="M41.1521 214.712H93.5464V162.058H41.1521L41.1521 214.712Z" fill="#F0F0F0"/>
<path d="M45.934 185.814H88.7778V168.545H45.934V185.814Z" fill="#E6E6E6"/>
<path d="M45.934 208.232H88.7778V190.962H45.934V208.232Z" fill="#E6E6E6"/>
<path d="M72.1611 178.361H62.5441C62.3867 178.361 62.2309 178.33 62.0857 178.269C61.9406 178.209 61.809 178.119 61.6987 178.007C61.5883 177.895 61.5014 177.762 61.443 177.616C61.3846 177.47 61.3559 177.313 61.3586 177.156C61.3586 176.842 61.4835 176.54 61.7058 176.318C61.9281 176.095 62.2297 175.971 62.5441 175.971H72.1611C72.4755 175.971 72.777 176.095 72.9994 176.318C73.2217 176.54 73.3466 176.842 73.3466 177.156C73.3492 177.313 73.3205 177.47 73.2621 177.616C73.2038 177.762 73.1169 177.895 73.0065 178.007C72.8962 178.119 72.7646 178.209 72.6194 178.269C72.4743 178.33 72.3185 178.361 72.1611 178.361Z" fill="#F0F0F0"/>
<path d="M72.1611 200.779H62.5441C62.2297 200.779 61.9281 200.654 61.7058 200.432C61.4835 200.209 61.3586 199.908 61.3586 199.594C61.3603 199.28 61.486 198.98 61.7081 198.76C61.9303 198.539 62.2308 198.415 62.5441 198.415H72.1611C72.4744 198.415 72.7749 198.539 72.997 198.76C73.2191 198.98 73.3448 199.28 73.3466 199.594C73.3466 199.908 73.2217 200.209 72.9994 200.432C72.777 200.654 72.4755 200.779 72.1611 200.779Z" fill="#F0F0F0"/>
<path d="M64.8418 151.935C64.8418 151.935 54.8518 134.678 68.7245 120.939C68.7245 120.939 72.3476 123.297 72.2943 126.473C72.241 129.65 68.4115 130.469 69.2307 133.133C70.0499 135.797 73.6663 138.388 71.2953 140.579C68.9243 142.77 71.6749 144.722 71.5151 147.406C71.3552 150.09 64.8418 151.935 64.8418 151.935Z" fill="#F0F0F0"/>
<path d="M50.263 149.184C50.263 149.184 50.596 162.058 63.3632 162.058C76.1305 162.058 76.4568 149.184 76.4568 149.184H50.263Z" fill="#E6E6E6"/>
<path d="M65.601 153.513C65.601 153.513 69.6636 133.979 52.1478 125.321C52.1478 125.321 49.4838 128.704 50.5094 131.701C51.5351 134.698 55.4445 134.252 55.5044 137.029C55.5644 139.807 52.947 143.41 55.8907 144.742C58.8344 146.074 56.8364 148.798 57.8354 151.295C58.8344 153.793 65.601 153.513 65.601 153.513Z" fill="#E6E6E6"/>
<path d="M59.5604 57.2028H39.5737V107.479H59.5604V57.2028Z" fill="#E0E0E0"/>
<path d="M63.603 57.2028H42.3909V107.479H63.603V57.2028Z" fill="#F0F0F0"/>
<path d="M60.3729 104.249V60.4329H45.621V104.249H60.3729Z" fill="#FAFAFA"/>
<path d="M166.5 248.125C237.817 248.125 295.631 244.75 295.631 240.586C295.631 236.422 237.817 233.047 166.5 233.047C95.1831 233.047 37.3693 236.422 37.3693 240.586C37.3693 244.75 95.1831 248.125 166.5 248.125Z" fill="#F5F5F5"/>
<path d="M244.196 93.4997C244.089 95.3712 243.863 97.0895 243.609 98.8743C243.356 100.659 242.99 102.391 242.604 104.136C241.811 107.696 240.634 111.159 239.094 114.465C238.55 115.505 237.803 116.425 236.896 117.169C236.152 117.803 235.359 118.377 234.525 118.888C232.97 119.841 231.347 120.68 229.67 121.398C226.415 122.794 223.057 123.936 219.627 124.815L218.801 122.344C220.333 121.678 221.905 120.939 223.423 120.186C224.942 119.434 226.46 118.675 227.912 117.849C229.347 117.062 230.733 116.188 232.061 115.231C232.673 114.793 233.252 114.309 233.793 113.786C234.206 113.407 234.547 112.956 234.798 112.454C235.407 110.965 235.929 109.441 236.363 107.892C236.79 106.3 237.183 104.695 237.516 103.063C237.849 101.432 238.115 99.7801 238.355 98.1218C238.595 96.4634 238.788 94.7918 238.934 93.1934L244.196 93.4997Z" fill="#E58A7B"/>
<path d="M240.606 87.246C238.481 87.7855 236.996 96.5301 236.996 96.5301L242.85 100.526C242.85 100.526 248.465 91.7082 246.846 89.3772C245.128 86.893 243.709 86.4268 240.606 87.246Z" fill="#1BBA96"/>
<path opacity="0.5" d="M240.606 87.246C238.481 87.7855 236.996 96.5301 236.996 96.5301L242.85 100.526C242.85 100.526 248.465 91.7082 246.846 89.3772C245.128 86.893 243.709 86.4268 240.606 87.246Z" fill="black"/>
<path d="M240.799 89.1707L239.167 97.9819L242.457 100.213L240.799 89.1707Z" fill="#1BBA96"/>
<path opacity="0.7" d="M240.799 89.1707L239.167 97.9819L242.457 100.213L240.799 89.1707Z" fill="black"/>
<path d="M220.006 122.211L216.35 118.508L215.871 123.729C215.871 123.729 218.608 125.581 220.533 124.589L220.006 122.211Z" fill="#E58A7B"/>
<path d="M212.048 117.955L211.881 122.344L215.871 123.729L216.35 118.508L212.048 117.955Z" fill="#E58A7B"/>
<path d="M252.101 234.352H246.946L246.6 222.417H251.755L252.101 234.352Z" fill="#E58A7B"/>
<path d="M297.582 210.416L293.653 213.753L284.662 205.727L288.591 202.391L297.582 210.416Z" fill="#E58A7B"/>
<path d="M292.58 213.353L296.37 208.991C296.433 208.913 296.522 208.862 296.621 208.848C296.719 208.833 296.82 208.855 296.903 208.911L300.786 211.428C300.881 211.495 300.962 211.581 301.022 211.681C301.082 211.781 301.12 211.892 301.134 212.008C301.148 212.124 301.137 212.241 301.102 212.353C301.067 212.464 301.009 212.566 300.932 212.654C299.6 214.152 298.848 214.805 297.176 216.723C296.144 217.902 294.758 219.733 293.34 221.385C291.921 223.037 290.229 221.691 290.676 220.886C292.674 217.276 292.194 216.004 292.227 214.226C292.235 213.901 292.361 213.591 292.58 213.353Z" fill="#263238"/>
<path d="M246.766 233.766H252.561C252.66 233.765 252.757 233.8 252.833 233.865C252.909 233.93 252.959 234.02 252.973 234.119L253.639 238.701C253.652 238.817 253.639 238.933 253.603 239.044C253.567 239.154 253.508 239.256 253.43 239.342C253.353 239.428 253.257 239.497 253.151 239.543C253.045 239.59 252.93 239.614 252.814 239.613C250.816 239.613 249.817 239.46 247.272 239.46C245.707 239.46 242.464 239.627 240.306 239.627C238.148 239.627 238.022 237.482 238.928 237.289C242.963 236.423 244.555 235.225 245.914 234.079C246.154 233.881 246.455 233.771 246.766 233.766Z" fill="#263238"/>
<path d="M246.6 222.424L246.78 228.578H251.934L251.761 222.424H246.6Z" fill="#CF6F64"/>
<path d="M288.598 202.391L284.668 205.727L289.304 209.863L293.233 206.527L288.598 202.391Z" fill="#CF6F64"/>
<path d="M240.606 87.246C240.606 87.246 238.155 88.1118 243.07 118.355H264.002C263.649 109.837 263.643 104.582 267.712 87.0928C264.783 86.4843 261.814 86.0903 258.828 85.914C255.662 85.6839 252.483 85.6839 249.317 85.914C245.235 86.2736 240.606 87.246 240.606 87.246Z" fill="#1BBA96"/>
<path opacity="0.5" d="M240.606 87.246C240.606 87.246 238.155 88.1118 243.07 118.355H264.002C263.649 109.837 263.643 104.582 267.712 87.0928C264.783 86.4843 261.814 86.0903 258.828 85.914C255.662 85.6839 252.483 85.6839 249.317 85.914C245.235 86.2736 240.606 87.246 240.606 87.246Z" fill="black"/>
<path d="M252.414 88.0852L254.305 91.948C254.305 91.948 262.238 89.5237 261.199 86.0339L258.535 85.7275L252.414 88.0852Z" fill="#1BBA96"/>
<path opacity="0.6" d="M252.414 88.0852L254.305 91.948C254.305 91.948 262.238 89.5237 261.199 86.0339L258.535 85.7275L252.414 88.0852Z" fill="#FAFAFA"/>
<path d="M252.267 87.7255L249.603 91.6683C249.603 91.6683 243.956 89.2174 247.852 85.9207L249.51 85.7275L252.267 87.7255Z" fill="#1BBA96"/>
<path opacity="0.6" d="M252.267 87.7255L249.603 91.6683C249.603 91.6683 243.956 89.2174 247.852 85.9207L249.51 85.7275L252.267 87.7255Z" fill="#FAFAFA"/>
<path d="M260.772 59.274C263.216 56.923 260.872 45.8741 267.306 49.5304C275.484 54.1924 280.766 48.0918 278.035 45.7742C283.776 46.1804 283.216 52.7139 280.826 56.2237C274.758 65.1548 262.517 56.6633 262.444 61.1987C262.371 65.7342 260.772 59.274 260.772 59.274Z" fill="#263238"/>
<path d="M257.242 57.6823C260.046 55.4645 269.623 57.3093 263.057 66.2404L257.242 57.6823Z" fill="#1BBA96"/>
<path opacity="0.3" d="M257.242 57.6823C260.046 55.4645 269.623 57.3093 263.057 66.2404L257.242 57.6823Z" fill="black"/>
<path d="M258.721 61.8314C266.886 63.0502 267.459 76.3169 254.785 78.3749L258.721 61.8314Z" fill="#263238"/>
<path d="M257.882 75.1981C257.282 78.255 256.683 83.8561 258.828 85.9007C258.828 85.9007 257.988 88.9976 252.307 88.9976C246.06 88.9976 249.317 85.9007 249.317 85.9007C252.727 85.0815 252.647 82.5707 252.048 80.1797L257.882 75.1981Z" fill="#E58A7B"/>
<path d="M255.504 77.256L252.048 80.1997C252.2 80.7528 252.298 81.3194 252.341 81.8913C253.673 81.6982 255.438 80.2663 255.577 78.9077C255.654 78.3572 255.629 77.7975 255.504 77.256Z" fill="#CF6F64"/>
<path d="M244.995 71.655C242.178 68.0253 238.508 58.6613 249.49 57.7622L244.995 71.655Z" fill="#263238"/>
<path d="M257.675 67.3925C258.341 72.4674 258.741 74.5986 256.716 77.6622C253.673 82.2776 247.292 82.0045 245.121 77.236C243.157 72.9469 242.384 65.3745 246.893 62.4175C247.885 61.7605 249.028 61.368 250.215 61.2772C251.401 61.1865 252.591 61.4005 253.671 61.899C254.751 62.3974 255.686 63.1638 256.387 64.1253C257.088 65.0868 257.532 66.2114 257.675 67.3925Z" fill="#E58A7B"/>
<path d="M243.09 118.328C243.09 118.328 239.027 158.028 239.36 173.746C239.713 190.096 245.707 227.386 245.707 227.386H252.674C252.674 227.386 251.568 191.049 252.188 174.998C252.854 157.489 258.421 118.328 258.421 118.328H243.09Z" fill="#1BBA96"/>
<path opacity="0.6" d="M243.09 118.328C243.09 118.328 239.027 158.028 239.36 173.746C239.713 190.096 245.707 227.386 245.707 227.386H252.674C252.674 227.386 251.568 191.049 252.188 174.998C252.854 157.489 258.421 118.328 258.421 118.328H243.09Z" fill="#FAFAFA"/>
<path d="M253.26 227.632H245.081L244.482 225.028L253.639 224.708L253.26 227.632Z" fill="#1BBA96"/>
<path opacity="0.4" d="M253.26 227.632H245.081L244.482 225.028L253.639 224.708L253.26 227.632Z" fill="#FAFAFA"/>
<path d="M252.101 128.205C246.959 138.548 251.069 157.416 252.887 164.435C253.819 153.893 255.391 141.006 256.616 131.542C255.837 126.187 254.472 123.436 252.101 128.205Z" fill="#1BBA96"/>
<path opacity="0.4" d="M252.101 128.205C246.959 138.548 251.069 157.416 252.887 164.435C253.819 153.893 255.391 141.006 256.616 131.542C255.837 126.187 254.472 123.436 252.101 128.205Z" fill="#FAFAFA"/>
<path d="M248.598 118.328C248.598 118.328 253.34 159.62 256.923 172.854C261.172 188.591 287.559 209.763 287.559 209.763L292.92 205.208C292.92 205.208 273.779 182.211 270.529 173.906C263.589 156.217 269.53 129.857 263.982 118.315L248.598 118.328Z" fill="#1BBA96"/>
<path opacity="0.6" d="M248.598 118.328C248.598 118.328 253.34 159.62 256.923 172.854C261.172 188.591 287.559 209.763 287.559 209.763L292.92 205.208C292.92 205.208 273.779 182.211 270.529 173.906C263.589 156.217 269.53 129.857 263.982 118.315L248.598 118.328Z" fill="#FAFAFA"/>
<path d="M293.793 204.968L287.146 210.609L284.668 209.124L292.181 202.131L293.793 204.968Z" fill="#1BBA96"/>
<path opacity="0.4" d="M293.793 204.968L287.146 210.609L284.668 209.124L292.181 202.131L293.793 204.968Z" fill="#FAFAFA"/>
<path d="M250.349 70.2896C250.429 70.6959 250.276 71.0689 250.01 71.1221C249.743 71.1754 249.464 70.8824 249.384 70.4561C249.304 70.0299 249.457 69.6769 249.723 69.6236C249.99 69.5704 250.269 69.8767 250.349 70.2896Z" fill="#263238"/>
<path d="M245.754 71.1954C245.834 71.6017 245.681 71.9746 245.414 72.0279C245.148 72.0812 244.868 71.7881 244.788 71.3619C244.708 70.9357 244.855 70.5827 245.121 70.5294C245.388 70.4761 245.661 70.7825 245.754 71.1954Z" fill="#263238"/>
<path d="M245.235 70.5494L244.196 70.4561C244.196 70.4561 244.848 71.1221 245.235 70.5494Z" fill="#263238"/>
<path d="M247.086 71.6549C246.906 72.6566 246.59 73.6291 246.147 74.5453C246.383 74.6541 246.64 74.7104 246.899 74.7104C247.159 74.7104 247.416 74.6541 247.652 74.5453L247.086 71.6549Z" fill="#DF5753"/>
<path d="M249.39 75.8574C249.359 75.8574 249.328 75.8448 249.306 75.8223C249.283 75.7998 249.27 75.7693 249.27 75.7375C249.27 75.7057 249.283 75.6753 249.306 75.6528C249.328 75.6303 249.359 75.6177 249.39 75.6177C249.9 75.5286 250.382 75.3206 250.796 75.0105C251.21 74.7003 251.546 74.2968 251.775 73.8328C251.781 73.8179 251.79 73.8044 251.801 73.793C251.812 73.7816 251.826 73.7726 251.841 73.7664C251.856 73.7602 251.872 73.757 251.888 73.757C251.904 73.7569 251.92 73.7601 251.934 73.7662C251.949 73.7723 251.963 73.7813 251.974 73.7926C251.986 73.804 251.995 73.8175 252.001 73.8323C252.007 73.8471 252.01 73.8631 252.01 73.8791C252.01 73.8952 252.007 73.9112 252.001 73.926C251.76 74.43 251.401 74.8686 250.955 75.2047C250.509 75.5409 249.988 75.7647 249.437 75.8574H249.39Z" fill="#263238"/>
<path d="M245.088 64.2157C245.088 64.2157 249.424 70.7891 257.416 71.6549C257.416 71.6549 265.667 64.1624 260.592 58.9676C252.374 50.5627 242.571 61.272 245.088 64.2157Z" fill="#263238"/>
<path d="M259.414 71.3153C259.403 71.8045 259.295 72.2867 259.096 72.7337C258.897 73.1808 258.611 73.5838 258.255 73.9194C257.296 74.8185 256.217 74.1058 255.977 72.8871C255.764 71.7882 255.977 70.0033 257.209 69.5571C257.475 69.4677 257.759 69.4465 258.035 69.4952C258.311 69.5439 258.571 69.661 258.79 69.8359C259.009 70.0108 259.181 70.2378 259.29 70.4962C259.399 70.7546 259.442 71.0362 259.414 71.3153Z" fill="#E58A7B"/>
<path d="M251.402 68.5314C251.341 68.5321 251.282 68.5108 251.235 68.4714C251.012 68.2612 250.743 68.1064 250.449 68.0196C250.155 67.9329 249.845 67.9165 249.544 67.9719C249.513 67.9809 249.48 67.9836 249.448 67.9797C249.416 67.9758 249.385 67.9655 249.357 67.9493C249.329 67.9331 249.304 67.9114 249.285 67.8856C249.266 67.8597 249.252 67.8302 249.244 67.7988C249.228 67.7361 249.237 67.6695 249.269 67.6134C249.301 67.5573 249.355 67.5162 249.417 67.4991C249.797 67.4212 250.19 67.4356 250.563 67.5411C250.936 67.6465 251.279 67.84 251.562 68.1051C251.607 68.1512 251.633 68.2135 251.633 68.2783C251.633 68.3431 251.607 68.4053 251.562 68.4514C251.521 68.4977 251.463 68.5263 251.402 68.5314Z" fill="#263238"/>
<path d="M243.183 69.4838C243.153 69.4907 243.121 69.4907 243.09 69.4838C243.06 69.4721 243.032 69.4545 243.009 69.4319C242.986 69.4093 242.968 69.3823 242.955 69.3524C242.943 69.3225 242.936 69.2904 242.937 69.2581C242.937 69.2257 242.944 69.1938 242.957 69.1641C243.097 68.8028 243.322 68.4804 243.613 68.2242C243.904 67.9681 244.252 67.7856 244.628 67.6923C244.66 67.6855 244.692 67.6853 244.723 67.6915C244.754 67.6977 244.784 67.7102 244.81 67.7283C244.836 67.7464 244.859 67.7697 244.875 67.7967C244.892 67.8237 244.903 67.8539 244.908 67.8854C244.915 67.9169 244.915 67.9495 244.909 67.9812C244.903 68.0128 244.891 68.0429 244.873 68.0697C244.854 68.0964 244.831 68.1192 244.804 68.1368C244.777 68.1543 244.747 68.1662 244.715 68.1718C244.415 68.2487 244.138 68.3957 243.907 68.6006C243.675 68.8056 243.496 69.0626 243.383 69.3506C243.364 69.3884 243.336 69.4206 243.301 69.444C243.266 69.4674 243.225 69.4811 243.183 69.4838Z" fill="#263238"/>
<path d="M275.058 112.774V112.181C275.058 111.382 274.945 110.616 274.865 109.843C274.462 106.852 273.825 103.897 272.96 101.006C272.124 98.1415 271.128 95.3265 269.976 92.574L265.068 94.572C266.06 97.1427 266.999 99.8533 267.859 102.517C268.271 103.849 268.664 105.181 269.004 106.513C269.344 107.845 269.67 109.177 269.903 110.509L270.043 111.395C269.583 111.242 269.111 111.075 268.631 110.876C266.114 109.85 263.543 108.518 261.005 107.239L259.534 109.39C261.792 111.352 264.226 113.099 266.806 114.612C267.499 115.013 268.218 115.369 268.957 115.678C269.372 115.857 269.8 116.007 270.236 116.124C270.496 116.197 270.761 116.253 271.029 116.29C271.385 116.336 271.745 116.336 272.101 116.29C272.688 116.239 273.251 116.027 273.726 115.678C274.318 115.238 274.735 114.603 274.905 113.886C275.006 113.524 275.057 113.15 275.058 112.774ZM271.475 111.781H271.595C271.668 111.775 271.575 111.788 271.442 111.781H271.475Z" fill="#E58A7B"/>
<path d="M267.732 87.0662C269.83 87.7322 272.347 94.925 272.347 94.925L264.216 100.746C264.216 100.746 261.245 94.7185 262.131 92.0079C263.023 89.1841 265.321 86.3402 267.732 87.0662Z" fill="#1BBA96"/>
<path opacity="0.5" d="M267.732 87.0662C269.83 87.7322 272.347 94.925 272.347 94.925L264.216 100.746C264.216 100.746 261.245 94.7185 262.131 92.0079C263.023 89.1841 265.321 86.3402 267.732 87.0662Z" fill="black"/>
<path d="M291.169 215.837C291.062 215.834 290.958 215.808 290.864 215.759C290.769 215.711 290.687 215.642 290.622 215.558C290.572 215.505 290.536 215.439 290.52 215.367C290.503 215.296 290.507 215.221 290.529 215.151C290.716 214.519 292.527 214.006 292.707 213.952C292.731 213.945 292.756 213.945 292.78 213.953C292.803 213.96 292.824 213.974 292.84 213.992C292.852 214.013 292.858 214.036 292.858 214.059C292.858 214.082 292.852 214.105 292.84 214.126C292.521 214.732 291.881 215.757 291.235 215.837H291.169ZM292.501 214.272C291.788 214.499 290.869 214.892 290.769 215.225C290.758 215.255 290.757 215.287 290.766 215.318C290.774 215.349 290.791 215.377 290.816 215.398C290.861 215.464 290.923 215.516 290.996 215.55C291.068 215.584 291.149 215.598 291.228 215.591C291.568 215.551 292.034 215.065 292.494 214.272H292.501Z" fill="#1BBA96"/>
<path d="M291.928 214.292C291.395 214.347 290.862 214.197 290.436 213.873C290.374 213.798 290.341 213.703 290.341 213.606C290.341 213.509 290.374 213.415 290.436 213.34C290.489 213.264 290.557 213.2 290.636 213.151C290.715 213.103 290.804 213.072 290.895 213.06C291.628 212.974 292.76 213.933 292.807 213.979C292.824 213.992 292.837 214.009 292.844 214.03C292.851 214.05 292.852 214.072 292.847 214.092C292.844 214.114 292.835 214.134 292.821 214.151C292.806 214.167 292.788 214.179 292.767 214.186C292.494 214.262 292.211 214.298 291.928 214.292ZM291.022 213.293H290.942C290.883 213.3 290.826 213.32 290.776 213.351C290.725 213.382 290.682 213.423 290.649 213.473C290.562 213.6 290.596 213.673 290.649 213.719C290.869 214.006 291.881 214.112 292.501 214.006C292.085 213.644 291.582 213.398 291.042 213.293H291.022Z" fill="#1BBA96"/>
<path d="M244.835 234.658C244.393 234.699 243.951 234.586 243.583 234.339C243.5 234.266 243.437 234.174 243.398 234.07C243.36 233.967 243.348 233.855 243.363 233.746C243.367 233.679 243.388 233.613 243.424 233.556C243.46 233.499 243.51 233.452 243.57 233.42C244.202 233.08 246.234 234.126 246.487 234.245C246.509 234.257 246.528 234.276 246.539 234.298C246.551 234.321 246.556 234.347 246.553 234.372C246.551 234.397 246.54 234.42 246.523 234.438C246.507 234.456 246.484 234.468 246.46 234.472C245.926 234.587 245.381 234.65 244.835 234.658ZM243.916 233.593C243.838 233.588 243.759 233.604 243.689 233.639C243.665 233.651 243.645 233.669 243.631 233.691C243.617 233.714 243.609 233.739 243.609 233.766C243.597 233.838 243.603 233.912 243.627 233.981C243.652 234.05 243.694 234.111 243.749 234.159C244.062 234.439 244.908 234.492 246.054 234.299C245.386 233.944 244.663 233.705 243.916 233.593Z" fill="#1BBA96"/>
<path d="M246.42 234.479H246.367C245.754 234.199 244.542 233.093 244.635 232.481C244.635 232.341 244.755 232.168 245.095 232.134C245.214 232.121 245.336 232.133 245.45 232.17C245.565 232.207 245.671 232.267 245.761 232.347C246.427 232.887 246.533 234.272 246.533 234.345C246.537 234.366 246.534 234.387 246.526 234.406C246.517 234.425 246.504 234.441 246.487 234.452C246.468 234.468 246.445 234.477 246.42 234.479ZM245.195 232.387H245.121C244.895 232.387 244.882 232.494 244.875 232.527C244.822 232.874 245.641 233.753 246.267 234.132C246.22 233.544 245.987 232.986 245.601 232.541C245.49 232.448 245.352 232.395 245.208 232.387H245.195Z" fill="#1BBA96"/>
<path d="M261.738 107.832L260.006 102.537L257.249 106.993C257.249 106.993 258.874 109.877 261.019 109.83L261.738 107.832Z" fill="#E58A7B"/>
<path d="M256.39 100.126L254.285 103.983L257.229 106.993L259.986 102.537L256.39 100.126Z" fill="#E58A7B"/>
<path d="M249.843 69.6436L248.811 69.5504C248.811 69.5504 249.464 70.2164 249.843 69.6436Z" fill="#263238"/>
<path d="M264.315 117.096L264.855 118.974C264.928 119.114 264.755 119.267 264.509 119.267H242.97C242.777 119.267 242.624 119.174 242.61 119.054L242.424 117.216C242.424 117.083 242.571 116.976 242.777 116.976H263.976C264.038 116.967 264.101 116.972 264.161 116.993C264.22 117.014 264.273 117.05 264.315 117.096Z" fill="#263238"/>
<path d="M261.472 119.467H262.038C262.151 119.467 262.237 119.407 262.231 119.341L261.964 116.903C261.964 116.83 261.858 116.776 261.745 116.776H261.179C261.065 116.776 260.979 116.83 260.985 116.903L261.252 119.341C261.258 119.407 261.358 119.467 261.472 119.467Z" fill="#1BBA96"/>
<path opacity="0.6" d="M261.472 119.467H262.038C262.151 119.467 262.237 119.407 262.231 119.341L261.964 116.903C261.964 116.83 261.858 116.776 261.745 116.776H261.179C261.065 116.776 260.979 116.83 260.985 116.903L261.252 119.341C261.258 119.407 261.358 119.467 261.472 119.467Z" fill="#FAFAFA"/>
<path d="M244.562 119.467H245.128C245.241 119.467 245.328 119.407 245.321 119.341L245.055 116.903C245.055 116.83 244.948 116.776 244.835 116.776H244.269C244.156 116.776 244.069 116.83 244.076 116.903L244.342 119.341C244.349 119.407 244.422 119.467 244.562 119.467Z" fill="#1BBA96"/>
<path opacity="0.6" d="M244.562 119.467H245.128C245.241 119.467 245.328 119.407 245.321 119.341L245.055 116.903C245.055 116.83 244.948 116.776 244.835 116.776H244.269C244.156 116.776 244.069 116.83 244.076 116.903L244.342 119.341C244.349 119.407 244.422 119.467 244.562 119.467Z" fill="#FAFAFA"/>
<path d="M253.013 119.467H253.586C253.699 119.467 253.786 119.407 253.773 119.341L253.506 116.903C253.506 116.83 253.4 116.776 253.286 116.776H252.72C252.607 116.776 252.521 116.83 252.527 116.903L252.794 119.341C252.812 119.382 252.843 119.417 252.883 119.44C252.922 119.463 252.968 119.472 253.013 119.467Z" fill="#1BBA96"/>
<path opacity="0.6" d="M253.013 119.467H253.586C253.699 119.467 253.786 119.407 253.773 119.341L253.506 116.903C253.506 116.83 253.4 116.776 253.286 116.776H252.72C252.607 116.776 252.521 116.83 252.527 116.903L252.794 119.341C252.812 119.382 252.843 119.417 252.883 119.44C252.922 119.463 252.968 119.472 253.013 119.467Z" fill="#FAFAFA"/>
<path d="M186.214 240.586H230.269C231.297 240.598 232.316 240.395 233.26 239.99C234.205 239.585 235.054 238.987 235.754 238.235C236.454 237.482 236.989 236.591 237.324 235.62C237.66 234.649 237.788 233.618 237.702 232.594L227.166 81.918C226.983 79.7634 226.007 77.7533 224.428 76.2769C222.848 74.8005 220.776 73.9628 218.614 73.926H174.559C173.531 73.914 172.512 74.117 171.568 74.5219C170.623 74.9268 169.774 75.5247 169.074 76.2773C168.374 77.0298 167.839 77.9203 167.504 78.8917C167.168 79.8631 167.04 80.8939 167.126 81.918L177.662 232.6C177.846 234.754 178.823 236.762 180.403 238.237C181.982 239.712 184.053 240.549 186.214 240.586Z" fill="#1BBA96"/>
<path opacity="0.2" d="M186.214 240.586H230.269C231.297 240.598 232.316 240.395 233.26 239.99C234.205 239.585 235.054 238.987 235.754 238.235C236.454 237.482 236.989 236.591 237.324 235.62C237.66 234.649 237.788 233.618 237.702 232.594L227.166 81.918C226.983 79.7634 226.007 77.7533 224.428 76.2769C222.848 74.8005 220.776 73.9628 218.614 73.926H174.559C173.531 73.914 172.512 74.117 171.568 74.5219C170.623 74.9268 169.774 75.5247 169.074 76.2773C168.374 77.0298 167.839 77.9203 167.504 78.8917C167.168 79.8631 167.04 80.8939 167.126 81.918L177.662 232.6C177.846 234.754 178.823 236.762 180.403 238.237C181.982 239.712 184.053 240.549 186.214 240.586Z" fill="black"/>
<path d="M162.942 128.38L162.277 128.426L163.011 138.923L163.676 138.877L162.942 128.38Z" fill="#1BBA96"/>
<path opacity="0.5" d="M162.942 128.38L162.277 128.426L163.011 138.923L163.676 138.877L162.942 128.38Z" fill="black"/>
<path d="M180.446 240.586H224.495C225.523 240.598 226.542 240.395 227.486 239.99C228.431 239.585 229.28 238.987 229.98 238.235C230.68 237.482 231.215 236.591 231.55 235.62C231.886 234.649 232.014 233.618 231.928 232.594L221.392 81.918C221.209 79.7634 220.233 77.7533 218.653 76.2769C217.074 74.8005 215.002 73.9628 212.84 73.926H168.791C167.763 73.914 166.745 74.117 165.8 74.5219C164.856 74.9268 164.006 75.5247 163.306 76.2773C162.606 77.0298 162.072 77.9203 161.736 78.8917C161.401 79.8631 161.272 80.8939 161.358 81.918L171.895 232.594C172.077 234.748 173.053 236.758 174.633 238.235C176.213 239.711 178.284 240.549 180.446 240.586Z" fill="#1BBA96"/>
<path opacity="0.5" d="M180.446 240.586H224.495C225.523 240.598 226.542 240.395 227.486 239.99C228.431 239.585 229.28 238.987 229.98 238.235C230.68 237.482 231.215 236.591 231.55 235.62C231.886 234.649 232.014 233.618 231.928 232.594L221.392 81.918C221.209 79.7634 220.233 77.7533 218.653 76.2769C217.074 74.8005 215.002 73.9628 212.84 73.926H168.791C167.763 73.914 166.745 74.117 165.8 74.5219C164.856 74.9268 164.006 75.5247 163.306 76.2773C162.606 77.0298 162.072 77.9203 161.736 78.8917C161.401 79.8631 161.272 80.8939 161.358 81.918L171.895 232.594C172.077 234.748 173.053 236.758 174.633 238.235C176.213 239.711 178.284 240.549 180.446 240.586Z" fill="black"/>
<path d="M188.625 121.918H196.776C196.968 121.926 197.159 121.892 197.337 121.819C197.515 121.746 197.674 121.636 197.805 121.496C197.936 121.355 198.035 121.188 198.096 121.006C198.156 120.823 198.176 120.63 198.155 120.439L196.204 92.5341C196.171 92.1347 195.99 91.7619 195.697 91.4886C195.404 91.2152 195.019 91.0608 194.619 91.0556H186.48C186.289 91.0486 186.098 91.083 185.921 91.1564C185.745 91.2297 185.586 91.3403 185.455 91.4807C185.325 91.621 185.227 91.7877 185.167 91.9695C185.107 92.1513 185.087 92.3438 185.108 92.5341L187.059 120.439C187.092 120.836 187.27 121.206 187.559 121.478C187.848 121.751 188.227 121.908 188.625 121.918Z" fill="#1BBA96"/>
<path opacity="0.2" d="M188.625 121.918H196.776C196.968 121.926 197.159 121.892 197.337 121.819C197.515 121.746 197.674 121.636 197.805 121.496C197.936 121.355 198.035 121.188 198.096 121.006C198.156 120.823 198.176 120.63 198.155 120.439L196.204 92.5341C196.171 92.1347 195.99 91.7619 195.697 91.4886C195.404 91.2152 195.019 91.0608 194.619 91.0556H186.48C186.289 91.0486 186.098 91.083 185.921 91.1564C185.745 91.2297 185.586 91.3403 185.455 91.4807C185.325 91.621 185.227 91.7877 185.167 91.9695C185.107 92.1513 185.087 92.3438 185.108 92.5341L187.059 120.439C187.092 120.836 187.27 121.206 187.559 121.478C187.848 121.751 188.227 121.908 188.625 121.918Z" fill="black"/>
<path d="M138.694 240.586H94.6386C93.611 240.598 92.5922 240.395 91.6477 239.99C90.7031 239.585 89.8537 238.987 89.1538 238.235C88.4539 237.482 87.9191 236.591 87.5837 235.62C87.2483 234.649 87.1196 233.618 87.206 232.594L97.7422 81.918C97.9264 79.764 98.9025 77.7547 100.482 76.2786C102.061 74.8025 104.132 73.9643 106.294 73.926H150.349C151.377 73.914 152.396 74.117 153.34 74.5219C154.285 74.9268 155.134 75.5247 155.834 76.2773C156.534 77.0298 157.069 77.9203 157.404 78.8917C157.74 79.8631 157.868 80.8939 157.782 81.918L147.246 232.594C147.063 234.748 146.087 236.758 144.508 238.235C142.928 239.711 140.856 240.549 138.694 240.586Z" fill="#1BBA96"/>
<path opacity="0.5" d="M138.694 240.586H94.6386C93.611 240.598 92.5922 240.395 91.6477 239.99C90.7031 239.585 89.8537 238.987 89.1538 238.235C88.4539 237.482 87.9191 236.591 87.5837 235.62C87.2483 234.649 87.1196 233.618 87.206 232.594L97.7422 81.918C97.9264 79.764 98.9025 77.7547 100.482 76.2786C102.061 74.8025 104.132 73.9643 106.294 73.926H150.349C151.377 73.914 152.396 74.117 153.34 74.5219C154.285 74.9268 155.134 75.5247 155.834 76.2773C156.534 77.0298 157.069 77.9203 157.404 78.8917C157.74 79.8631 157.868 80.8939 157.782 81.918L147.246 232.594C147.063 234.748 146.087 236.758 144.508 238.235C142.928 239.711 140.856 240.549 138.694 240.586Z" fill="black"/>
<path d="M120.166 71.5884H117.682V72.2544H120.166V71.5884Z" fill="#1BBA96"/>
<path opacity="0.3" d="M120.166 71.5884H117.682V72.2544H120.166V71.5884Z" fill="black"/>
<path d="M113.227 71.5884H105.414V72.2544H113.227V71.5884Z" fill="#1BBA96"/>
<path opacity="0.3" d="M113.227 71.5884H105.414V72.2544H113.227V71.5884Z" fill="black"/>
<path d="M132.92 240.586H88.871C87.8434 240.598 86.8247 240.395 85.8801 239.99C84.9356 239.585 84.0861 238.987 83.3862 238.235C82.6864 237.482 82.1516 236.591 81.8161 235.62C81.4807 234.649 81.3521 233.618 81.4385 232.594L91.9746 81.918C92.1574 79.7634 93.1331 77.7533 94.7129 76.2769C96.2926 74.8005 98.3641 73.9628 100.526 73.926H144.575C145.603 73.914 146.622 74.117 147.566 74.5219C148.511 74.9268 149.36 75.5247 150.06 76.2773C150.76 77.0298 151.295 77.9203 151.63 78.8917C151.966 79.8631 152.094 80.8939 152.008 81.918L141.472 232.594C141.289 234.748 140.313 236.758 138.733 238.235C137.154 239.711 135.082 240.549 132.92 240.586Z" fill="#1BBA96"/>
<path opacity="0.3" d="M132.92 240.586H88.871C87.8434 240.598 86.8247 240.395 85.8801 239.99C84.9356 239.585 84.0861 238.987 83.3862 238.235C82.6864 237.482 82.1516 236.591 81.8161 235.62C81.4807 234.649 81.3521 233.618 81.4385 232.594L91.9746 81.918C92.1574 79.7634 93.1331 77.7533 94.7129 76.2769C96.2926 74.8005 98.3641 73.9628 100.526 73.926H144.575C145.603 73.914 146.622 74.117 147.566 74.5219C148.511 74.9268 149.36 75.5247 150.06 76.2773C150.76 77.0298 151.295 77.9203 151.63 78.8917C151.966 79.8631 152.094 80.8939 152.008 81.918L141.472 232.594C141.289 234.748 140.313 236.758 138.733 238.235C137.154 239.711 135.082 240.549 132.92 240.586Z" fill="black"/>
<path d="M139.527 231.914H81.5251C81.386 231.914 81.2486 231.885 81.1212 231.829C80.9938 231.773 80.8791 231.692 80.7843 231.59C80.6895 231.489 80.6165 231.369 80.5698 231.238C80.5231 231.107 80.5036 230.968 80.5127 230.829L90.7758 84.0492C90.7944 83.7918 90.9098 83.5511 91.099 83.3756C91.2881 83.2 91.5368 83.1028 91.7948 83.1035H149.79C149.93 83.1032 150.068 83.1315 150.196 83.1869C150.324 83.2422 150.44 83.3233 150.535 83.4251C150.631 83.5268 150.704 83.6472 150.751 83.7786C150.799 83.91 150.818 84.0497 150.809 84.189L140.526 230.969C140.509 231.223 140.397 231.462 140.212 231.637C140.027 231.813 139.782 231.912 139.527 231.914Z" fill="#1BBA96"/>
<path opacity="0.9" d="M139.527 231.914H81.5251C81.386 231.914 81.2486 231.885 81.1212 231.829C80.9938 231.773 80.8791 231.692 80.7843 231.59C80.6895 231.489 80.6165 231.369 80.5698 231.238C80.5231 231.107 80.5036 230.968 80.5127 230.829L90.7758 84.0492C90.7944 83.7918 90.9098 83.5511 91.099 83.3756C91.2881 83.2 91.5368 83.1028 91.7948 83.1035H149.79C149.93 83.1032 150.068 83.1315 150.196 83.1869C150.324 83.2422 150.44 83.3233 150.535 83.4251C150.631 83.5268 150.704 83.6472 150.751 83.7786C150.799 83.91 150.818 84.0497 150.809 84.189L140.526 230.969C140.509 231.223 140.397 231.462 140.212 231.637C140.027 231.813 139.782 231.912 139.527 231.914Z" fill="#FAFAFA"/>
<path d="M138.115 98.1284H100.466C99.4427 98.1462 98.4622 98.5427 97.7143 99.2415C96.9663 99.9402 96.504 100.891 96.4168 101.911L92.4941 157.989C92.4532 158.474 92.5142 158.962 92.6733 159.422C92.8324 159.882 93.0859 160.304 93.4178 160.66C93.7496 161.017 94.1523 161.3 94.5999 161.491C95.0476 161.682 95.5304 161.778 96.0172 161.771H98.6279L97.2959 165.881C100.376 165.603 103.225 164.128 105.228 161.771H133.666C134.69 161.754 135.67 161.357 136.418 160.658C137.166 159.96 137.628 159.008 137.715 157.989L141.638 101.911C141.678 101.426 141.616 100.939 141.457 100.479C141.297 100.019 141.044 99.5978 140.712 99.2417C140.381 98.8857 139.978 98.6028 139.531 98.4111C139.084 98.2194 138.602 98.1231 138.115 98.1284Z" fill="#1BBA96"/>
<path opacity="0.6" d="M138.115 98.1284H100.466C99.4427 98.1462 98.4622 98.5427 97.7143 99.2415C96.9663 99.9402 96.504 100.891 96.4168 101.911L92.4941 157.989C92.4532 158.474 92.5142 158.962 92.6733 159.422C92.8324 159.882 93.0859 160.304 93.4178 160.66C93.7496 161.017 94.1523 161.3 94.5999 161.491C95.0476 161.682 95.5304 161.778 96.0172 161.771H98.6279L97.2959 165.881C100.376 165.603 103.225 164.128 105.228 161.771H133.666C134.69 161.754 135.67 161.357 136.418 160.658C137.166 159.96 137.628 159.008 137.715 157.989L141.638 101.911C141.678 101.426 141.616 100.939 141.457 100.479C141.297 100.019 141.044 99.5978 140.712 99.2417C140.381 98.8857 139.978 98.6028 139.531 98.4111C139.084 98.2194 138.602 98.1231 138.115 98.1284Z" fill="#FAFAFA"/>
<path d="M95.238 173.06H132.887C133.374 173.054 133.857 173.149 134.304 173.341C134.752 173.532 135.155 173.815 135.486 174.171C135.818 174.527 136.072 174.949 136.231 175.409C136.39 175.87 136.451 176.358 136.41 176.843L134.725 200.932C134.638 201.952 134.176 202.903 133.428 203.602C132.68 204.301 131.699 204.697 130.676 204.715H128.058L128.791 208.824C127.347 208.704 125.946 208.274 124.682 207.565C123.418 206.856 122.321 205.884 121.465 204.715H93.0136C92.5267 204.721 92.044 204.626 91.5963 204.435C91.1486 204.243 90.7459 203.96 90.4141 203.604C90.0823 203.248 89.8287 202.826 89.6696 202.366C89.5105 201.906 89.4495 201.417 89.4904 200.932L91.1754 176.843C91.2629 175.821 91.727 174.868 92.4778 174.169C93.2285 173.47 94.2123 173.075 95.238 173.06Z" fill="#1BBA96"/>
<path opacity="0.6" d="M95.238 173.06H132.887C133.374 173.054 133.857 173.149 134.304 173.341C134.752 173.532 135.155 173.815 135.486 174.171C135.818 174.527 136.072 174.949 136.231 175.409C136.39 175.87 136.451 176.358 136.41 176.843L134.725 200.932C134.638 201.952 134.176 202.903 133.428 203.602C132.68 204.301 131.699 204.697 130.676 204.715H128.058L128.791 208.824C127.347 208.704 125.946 208.274 124.682 207.565C123.418 206.856 122.321 205.884 121.465 204.715H93.0136C92.5267 204.721 92.044 204.626 91.5963 204.435C91.1486 204.243 90.7459 203.96 90.4141 203.604C90.0823 203.248 89.8287 202.826 89.6696 202.366C89.5105 201.906 89.4495 201.417 89.4904 200.932L91.1754 176.843C91.2629 175.821 91.727 174.868 92.4778 174.169C93.2285 173.47 94.2123 173.075 95.238 173.06Z" fill="#FAFAFA"/>
<path d="M129.237 78.1418C129.211 78.4795 129.06 78.7953 128.814 79.0279C128.568 79.2605 128.244 79.3933 127.905 79.4005C127.743 79.403 127.582 79.3715 127.433 79.3079C127.284 79.2443 127.15 79.1502 127.04 79.0316C126.929 78.913 126.845 78.7725 126.792 78.6192C126.739 78.4659 126.719 78.3033 126.733 78.1418C126.762 77.8052 126.914 77.4911 127.16 77.2591C127.405 77.027 127.727 76.8932 128.065 76.8831C128.227 76.8806 128.388 76.9122 128.537 76.9757C128.686 77.0393 128.82 77.1334 128.931 77.252C129.041 77.3707 129.126 77.5111 129.178 77.6644C129.231 77.8177 129.251 77.9803 129.237 78.1418Z" fill="#1BBA96"/>
<path opacity="0.5" d="M129.237 78.1418C129.211 78.4795 129.06 78.7953 128.814 79.0279C128.568 79.2605 128.244 79.3933 127.905 79.4005C127.743 79.403 127.582 79.3715 127.433 79.3079C127.284 79.2443 127.15 79.1502 127.04 79.0316C126.929 78.913 126.845 78.7725 126.792 78.6192C126.739 78.4659 126.719 78.3033 126.733 78.1418C126.762 77.8052 126.914 77.4911 127.16 77.2591C127.405 77.027 127.727 76.8932 128.065 76.8831C128.227 76.8806 128.388 76.9122 128.537 76.9757C128.686 77.0393 128.82 77.1334 128.931 77.252C129.041 77.3707 129.126 77.5111 129.178 77.6644C129.231 77.8177 129.251 77.9803 129.237 78.1418Z" fill="black"/>
<path d="M122.75 79.4005H113.966C113.804 79.402 113.644 79.3697 113.495 79.3058C113.347 79.2419 113.213 79.1477 113.103 79.0293C112.992 78.9109 112.908 78.7709 112.855 78.6181C112.802 78.4653 112.781 78.3031 112.794 78.1418C112.822 77.8047 112.973 77.4897 113.219 77.2574C113.465 77.0251 113.788 76.8917 114.126 76.883H122.91C123.072 76.8816 123.232 76.9139 123.381 76.9778C123.53 77.0417 123.663 77.1358 123.774 77.2542C123.884 77.3726 123.968 77.5127 124.021 77.6655C124.075 77.8183 124.095 77.9805 124.082 78.1418C124.055 78.4789 123.903 78.7938 123.657 79.0262C123.412 79.2585 123.089 79.3918 122.75 79.4005Z" fill="#1BBA96"/>
<path opacity="0.5" d="M122.75 79.4005H113.966C113.804 79.402 113.644 79.3697 113.495 79.3058C113.347 79.2419 113.213 79.1477 113.103 79.0293C112.992 78.9109 112.908 78.7709 112.855 78.6181C112.802 78.4653 112.781 78.3031 112.794 78.1418C112.822 77.8047 112.973 77.4897 113.219 77.2574C113.465 77.0251 113.788 76.8917 114.126 76.883H122.91C123.072 76.8816 123.232 76.9139 123.381 76.9778C123.53 77.0417 123.663 77.1358 123.774 77.2542C123.884 77.3726 123.968 77.5127 124.021 77.6655C124.075 77.8183 124.095 77.9805 124.082 78.1418C124.055 78.4789 123.903 78.7938 123.657 79.0262C123.412 79.2585 123.089 79.3918 122.75 79.4005Z" fill="black"/>
<path d="M75.8507 108.338L76.8964 110.383C77.2627 111.049 77.6356 111.775 78.0219 112.461C78.7945 113.839 79.5803 115.205 80.4062 116.53C81.9824 119.14 83.7878 121.605 85.8008 123.896C86.3003 124.396 86.8397 124.995 87.1861 125.268C87.67 125.658 88.187 126.006 88.7312 126.307C90.0281 126.991 91.3777 127.57 92.7671 128.039C95.761 129.032 98.8097 129.853 101.898 130.496L101.685 134.166C98.2165 134.369 94.7363 134.166 91.3153 133.56C89.4926 133.244 87.7072 132.742 85.9873 132.061C85.0302 131.679 84.1152 131.199 83.2567 130.629C82.8123 130.333 82.3894 130.006 81.9913 129.65L80.939 128.725C78.3976 126.259 76.1413 123.515 74.2124 120.546C73.2467 119.101 72.3343 117.636 71.5018 116.13C71.0822 115.378 70.6693 114.619 70.2763 113.853C69.8834 113.087 69.5104 112.341 69.1175 111.475L75.8507 108.338Z" fill="#E58A7B"/>
<path d="M100.566 130.496L103.53 128.405L105.095 134.452C105.095 134.452 102.484 135.371 100.519 134.046L100.566 130.496Z" fill="#E58A7B"/>
<path d="M107.619 127.033L108.671 132.094L105.088 134.452L103.523 128.405L107.619 127.033Z" fill="#E58A7B"/>
<path d="M126.447 121.672L125.641 121.525C124.799 121.379 123.935 121.432 123.117 121.678L120.792 122.384C121.979 119.932 122.423 117.187 122.071 114.485C121.791 112.447 120.26 112.914 120.26 112.914C120.26 112.914 118.015 121.385 113.353 124.635L111.888 125.654L113.979 140.579L115.704 140.419C116.37 140.419 120.16 140.419 122.604 140.419C123.322 140.389 124.024 140.197 124.658 139.858C125.292 139.519 125.842 139.042 126.267 138.461C127.512 136.813 128.226 134.825 128.312 132.76L128.751 125.814C128.858 123.763 127.872 121.918 126.447 121.672Z" fill="#1BBA96"/>
<path opacity="0.9" d="M126.447 121.672L125.641 121.525C124.799 121.379 123.935 121.432 123.117 121.678L120.792 122.384C121.979 119.932 122.423 117.187 122.071 114.485C121.791 112.447 120.26 112.914 120.26 112.914C120.26 112.914 118.015 121.385 113.353 124.635L111.888 125.654L113.979 140.579L115.704 140.419C116.37 140.419 120.16 140.419 122.604 140.419C123.322 140.389 124.024 140.197 124.658 139.858C125.292 139.519 125.842 139.042 126.267 138.461C127.512 136.813 128.226 134.825 128.312 132.76L128.751 125.814C128.858 123.763 127.872 121.918 126.447 121.672Z" fill="#FAFAFA"/>
<path d="M107.506 144.042L114.072 142.611C114.585 142.504 114.945 141.798 114.865 141.045L113.153 123.949C113.073 123.197 112.594 122.677 112.081 122.784L105.514 124.216C105.002 124.322 104.642 125.028 104.722 125.781L106.433 142.877C106.513 143.63 106.993 144.149 107.506 144.042Z" fill="#1BBA96"/>
<path d="M94.8517 87.6856C94.7718 88.0719 94.9117 88.4248 95.1647 88.4781C95.4178 88.5314 95.6909 88.265 95.7708 87.8787C95.8507 87.4924 95.7109 87.1328 95.4578 87.0795C95.2047 87.0262 94.9316 87.2993 94.8517 87.6856Z" fill="#263238"/>
<path d="M94.8784 88.4182C95.0927 89.6948 95.4803 90.9362 96.0305 92.1079C95.7286 92.2423 95.4008 92.3085 95.0704 92.3016C94.7399 92.2947 94.4151 92.2149 94.1191 92.0679L94.8784 88.4182Z" fill="#DF5753"/>
<path d="M95.904 85.3213C95.8588 85.3205 95.8149 85.3066 95.7775 85.2813C95.5218 85.143 95.237 85.0672 94.9464 85.0603C94.6558 85.0533 94.3678 85.1154 94.1058 85.2414C94.0501 85.2664 93.9868 85.2686 93.9295 85.2474C93.8722 85.2262 93.8255 85.1834 93.7994 85.1281C93.7863 85.1003 93.779 85.07 93.778 85.0393C93.777 85.0085 93.7822 84.9778 93.7934 84.9492C93.8047 84.9205 93.8216 84.8944 93.8433 84.8725C93.8649 84.8506 93.8908 84.8333 93.9193 84.8218C94.2513 84.6637 94.6164 84.5878 94.9839 84.6006C95.3513 84.6133 95.7103 84.7143 96.0305 84.895C96.0564 84.9112 96.0787 84.9325 96.0961 84.9575C96.1135 84.9826 96.1257 85.0108 96.1319 85.0407C96.1381 85.0706 96.1383 85.1014 96.1323 85.1313C96.1263 85.1612 96.1144 85.1896 96.0971 85.2147C96.0767 85.2475 96.0482 85.2745 96.0144 85.2931C95.9806 85.3118 95.9426 85.3215 95.904 85.3213Z" fill="#263238"/>
<path d="M81.1454 88.9243C81.8114 92.5007 82.544 99.0608 80.0399 101.445C80.0399 101.445 81.0189 105.081 87.6722 105.081C94.9982 105.081 91.1621 101.445 91.1621 101.445C87.1661 100.493 87.2793 97.5357 87.9719 94.7851L81.1454 88.9243Z" fill="#E58A7B"/>
<path d="M79.0276 102.471C78.548 101.299 78.628 99.1408 78.9809 99.1075C80.3662 99.0142 87.7588 98.9943 90.203 99.9333C90.5263 100.035 90.8261 100.2 91.0849 100.419C91.3437 100.638 91.5565 100.906 91.7108 101.208C91.8651 101.51 91.9579 101.839 91.9837 102.177C92.0096 102.515 91.968 102.855 91.8614 103.177L79.0276 102.471Z" fill="#1BBA96"/>
<path d="M62.6906 236.43C62.2607 236.428 61.8321 236.381 61.4119 236.29C61.3903 236.286 61.3704 236.276 61.3549 236.261C61.3394 236.245 61.3291 236.225 61.3253 236.204C61.3223 236.181 61.325 236.159 61.3332 236.138C61.3413 236.117 61.3546 236.098 61.3719 236.084C61.4318 236.044 62.7838 235.125 63.4964 235.285C63.5734 235.301 63.646 235.334 63.7091 235.381C63.7723 235.429 63.8247 235.489 63.8627 235.558C63.9207 235.638 63.9519 235.735 63.9519 235.834C63.9519 235.933 63.9207 236.03 63.8627 236.11C63.6985 236.239 63.5103 236.334 63.309 236.389C63.1077 236.443 62.8974 236.458 62.6906 236.43ZM61.7382 236.124C62.4708 236.244 63.4698 236.244 63.6829 235.964C63.6829 235.964 63.7628 235.857 63.6829 235.671C63.6613 235.63 63.6311 235.595 63.5942 235.567C63.5574 235.539 63.5149 235.52 63.4698 235.511C62.8431 235.542 62.24 235.76 61.7382 236.137V236.124Z" fill="#1BBA96"/>
<path d="M61.4385 236.31H61.3786C61.3601 236.3 61.3451 236.284 61.3356 236.265C61.3261 236.246 61.3225 236.225 61.3253 236.204C61.3253 236.144 61.4452 234.732 61.9913 234.266C62.0604 234.209 62.1403 234.167 62.2261 234.141C62.3119 234.116 62.4019 234.109 62.4908 234.119C62.5777 234.12 62.6615 234.152 62.7281 234.207C62.7948 234.263 62.8403 234.34 62.8571 234.425C62.957 234.971 61.978 236.037 61.4785 236.317L61.4385 236.31ZM62.4242 234.312C62.3284 234.313 62.2362 234.349 62.1644 234.412C61.8184 234.851 61.616 235.386 61.585 235.944C62.0845 235.564 62.7106 234.758 62.6506 234.432C62.6506 234.432 62.6506 234.332 62.4775 234.312H62.4242Z" fill="#1BBA96"/>
<path d="M55.7908 236.19H60.6859L65.1947 224.862H60.3063L55.7908 236.19Z" fill="#E58A7B"/>
<path d="M61.0722 235.624H55.5777C55.4796 235.625 55.3847 235.659 55.3085 235.721C55.2323 235.782 55.1792 235.868 55.1581 235.964L54.1924 240.313C54.1704 240.419 54.1725 240.528 54.1986 240.633C54.2247 240.738 54.2742 240.836 54.3433 240.919C54.4125 241.002 54.4995 241.069 54.5979 241.114C54.6963 241.159 54.8035 241.181 54.9117 241.179C56.8298 241.145 57.7622 241.032 60.1798 241.032C61.6649 241.032 64.7285 241.192 66.7865 241.192C68.8444 241.192 69.1042 239.194 68.265 238.974C64.4954 238.148 63.0769 237.009 61.8714 235.931C61.6524 235.732 61.3675 235.623 61.0722 235.624Z" fill="#263238"/>
<path d="M100.906 106.207C102.364 108.871 103.803 111.602 105.221 114.306L109.47 122.424L110.536 124.422C110.761 124.906 111.029 125.37 111.335 125.807C112.079 126.704 112.982 127.456 113.999 128.025C116.461 129.43 119.075 130.547 121.791 131.355L121.378 135.005C120.543 135.023 119.707 134.996 118.874 134.925C118.046 134.872 117.222 134.777 116.403 134.639C114.71 134.378 113.051 133.931 111.455 133.307C109.638 132.624 107.976 131.585 106.567 130.25C105.866 129.524 105.251 128.719 104.735 127.852L103.483 125.854C101.845 123.19 100.266 120.513 98.7478 117.822C97.236 115.111 95.7708 112.394 94.3655 109.617L100.906 106.207Z" fill="#E58A7B"/>
<path d="M67.6256 105.501C65.6276 109.77 72.0146 123.25 72.0146 123.25L82.9237 118.188C81.7331 114.364 80.2503 110.637 78.4881 107.04C75.6376 101.385 69.6503 101.139 67.6256 105.501Z" fill="#1BBA96"/>
<path opacity="0.8" d="M67.6256 105.501C65.6276 109.77 72.0146 123.25 72.0146 123.25L82.9237 118.188C81.7331 114.364 80.2503 110.637 78.4881 107.04C75.6376 101.385 69.6503 101.139 67.6256 105.501Z" fill="#FAFAFA"/>
<path d="M73.4798 106.374L71.0156 120.992C71.6017 122.371 72.0146 123.25 72.0146 123.25L82.9237 118.188C82.9237 118.188 77.9953 109.67 73.4798 106.374Z" fill="#1BBA96"/>
<path opacity="0.7" d="M73.4798 106.374L71.0156 120.992C71.6017 122.371 72.0146 123.25 72.0146 123.25L82.9237 118.188C82.9237 118.188 77.9953 109.67 73.4798 106.374Z" fill="#FAFAFA"/>
<path d="M98.6879 102.804C98.6879 102.804 103.896 108.691 98.9809 145.095H72.8138C72.6273 141.099 75.1514 121.485 71.282 102.551C74.1744 101.994 77.0998 101.624 80.0399 101.445C83.7442 101.232 87.4578 101.232 91.1621 101.445C93.7017 101.705 96.2177 102.159 98.6879 102.804Z" fill="#1BBA96"/>
<path opacity="0.8" d="M98.6879 102.804C98.6879 102.804 103.896 108.691 98.9809 145.095H72.8138C72.6273 141.099 75.1514 121.485 71.282 102.551C74.1744 101.994 77.0998 101.624 80.0399 101.445C83.7442 101.232 87.4578 101.232 91.1621 101.445C93.7017 101.705 96.2177 102.159 98.6879 102.804Z" fill="#FAFAFA"/>
<path d="M100.799 111.468L96.7565 121.458L100.799 127.339C101.199 122.057 101.199 116.751 100.799 111.468Z" fill="#1BBA96"/>
<path opacity="0.7" d="M100.799 111.468L96.7565 121.458L100.799 127.339C101.199 122.057 101.199 116.751 100.799 111.468Z" fill="#FAFAFA"/>
<path d="M92.3209 106.034C90.7092 110.429 97.1827 123.763 97.1827 123.763L108.904 117.855C107.403 113.859 105.478 110.034 103.163 106.447C99.6536 101.319 94.0925 101.232 92.3209 106.034Z" fill="#1BBA96"/>
<path opacity="0.8" d="M92.3209 106.034C90.7092 110.429 97.1827 123.763 97.1827 123.763L108.904 117.855C107.403 113.859 105.478 110.034 103.163 106.447C99.6536 101.319 94.0925 101.232 92.3209 106.034Z" fill="#FAFAFA"/>
<path d="M120.819 131.528L125.614 129.61L126.946 135.391C126.946 135.391 123.137 136.77 120.366 134.765L120.819 131.528Z" fill="#E58A7B"/>
<path d="M130.902 129.67L130.163 134.838L126.94 135.391L125.614 129.61L130.902 129.67Z" fill="#E58A7B"/>
<path d="M60.2996 224.868H65.1947L61.9513 233.007L57.4225 232.088L60.2996 224.868Z" fill="#CF6F64"/>
<path d="M82.1378 84.1824C81.4718 88.9843 80.8058 91.7615 82.6772 94.6986C85.5211 99.1141 91.8281 98.1618 93.9459 93.6596C95.8574 89.6103 96.6766 82.4308 92.4275 79.5737C91.4905 78.9488 90.4103 78.5717 89.2879 78.4778C88.1656 78.3838 87.0377 78.576 86.0098 79.0364C84.9819 79.4967 84.0876 80.2103 83.4104 81.1103C82.7333 82.0102 82.2954 83.0672 82.1378 84.1824Z" fill="#E58A7B"/>
<path d="M100.599 76.1105C96.4568 72.281 99.7335 71.3087 99.7335 71.3087C99.7335 71.3087 95.1914 69.4305 96.9896 73.4532C99.5004 79.0609 92.4674 77.3359 89.0975 73.4532C87.0196 71.0556 81.5517 73.5131 81.8181 75.8508C82.0845 78.1884 73.4931 76.3769 77.3825 81.4785C77.4558 86.8065 79.5271 91.9879 82.2776 93.3932C86.9929 95.7975 90.5294 89.0709 91.8481 83.6829C98.9609 87.0995 104.888 80.0732 100.599 76.1105Z" fill="#263238"/>
<path d="M88.2516 86.893C88.2784 88.105 88.7018 89.2748 89.4571 90.223C90.4628 91.4485 91.6083 90.7758 91.8747 89.3572C92.1144 88.0785 91.8747 85.9007 90.6093 85.1881C89.3439 84.4754 88.245 85.4411 88.2516 86.893Z" fill="#E58A7B"/>
<path d="M77.4292 76.4901C79.5666 76.4089 81.6631 77.0912 83.3432 78.4148C83.3432 78.4148 82.1378 73.26 77.4292 76.4901Z" fill="#263238"/>
<path d="M87.5191 145.095C87.5191 145.095 88.4981 164.915 92.1145 182.391C93.2666 187.925 92.5141 193.853 89.2706 198.481C79.7402 212.074 64.6286 230.176 64.6286 230.176L56.7099 229.29C56.7099 229.29 69.5304 205.521 76.0972 193.713C77.589 191.049 78.9077 188.611 77.7821 185.721C66.9064 158.115 72.7871 145.095 72.7871 145.095H87.5191Z" fill="#1BBA96"/>
<path opacity="0.3" d="M87.5191 145.095C87.5191 145.095 88.4981 164.915 92.1145 182.391C93.2666 187.925 92.5141 193.853 89.2706 198.481C79.7402 212.074 64.6286 230.176 64.6286 230.176L56.7099 229.29C56.7099 229.29 69.5304 205.521 76.0972 193.713C77.589 191.049 78.9077 188.611 77.7821 185.721C66.9064 158.115 72.7871 145.095 72.7871 145.095H87.5191Z" fill="black"/>
<path d="M88.9909 162.224L81.4118 153.18C81.1255 157.236 83.5763 172.407 91.9813 181.731C90.6426 175.158 89.6769 168.225 88.9909 162.224Z" fill="#1BBA96"/>
<path opacity="0.4" d="M88.9909 162.224L81.4118 153.18C81.1255 157.236 83.5763 172.407 91.9813 181.731C90.6426 175.158 89.6769 168.225 88.9909 162.224Z" fill="black"/>
<path d="M66.8597 228.971L65.308 232.181L55.7642 229.73L56.5234 226.753L66.8597 228.971Z" fill="#1BBA96"/>
<path opacity="0.1" d="M66.8597 228.971L65.308 232.181L55.7642 229.73L56.5234 226.753L66.8597 228.971Z" fill="black"/>
<path d="M95.2979 236.19H100.186L101.618 224.862H96.7298L95.2979 236.19Z" fill="#E58A7B"/>
<path d="M102.331 236.43C101.826 236.43 101.322 236.383 100.826 236.29C100.802 236.286 100.781 236.275 100.764 236.259C100.747 236.242 100.736 236.22 100.732 236.197C100.728 236.173 100.732 236.149 100.743 236.127C100.754 236.106 100.771 236.088 100.792 236.077C100.866 236.037 102.571 235.065 103.39 235.284C103.466 235.302 103.538 235.336 103.601 235.383C103.664 235.43 103.717 235.489 103.756 235.558C103.808 235.632 103.836 235.72 103.836 235.811C103.836 235.901 103.808 235.99 103.756 236.064C103.563 236.357 102.957 236.43 102.331 236.43ZM101.199 236.124C102.118 236.25 103.357 236.23 103.576 235.924C103.576 235.884 103.636 235.817 103.576 235.671C103.552 235.63 103.519 235.594 103.48 235.567C103.441 235.539 103.397 235.52 103.35 235.511C102.824 235.384 101.798 235.831 101.232 236.137L101.199 236.124Z" fill="#1BBA96"/>
<path d="M100.846 236.31C100.824 236.316 100.801 236.316 100.779 236.31C100.764 236.297 100.752 236.281 100.744 236.262C100.735 236.244 100.732 236.224 100.732 236.204C100.732 236.144 100.872 234.825 101.492 234.319C101.582 234.239 101.688 234.18 101.803 234.146C101.918 234.112 102.039 234.102 102.158 234.119C102.477 234.152 102.564 234.312 102.584 234.445C102.677 234.998 101.505 236.057 100.919 236.317L100.846 236.31ZM102.045 234.312C101.895 234.311 101.75 234.366 101.638 234.465C101.267 234.887 101.035 235.412 100.972 235.97C101.578 235.611 102.371 234.778 102.304 234.445C102.304 234.445 102.304 234.339 102.078 234.312H102.045Z" fill="#1BBA96"/>
<path d="M100.326 235.624H94.9982C94.9007 235.624 94.806 235.658 94.7307 235.72C94.6553 235.782 94.6039 235.868 94.5853 235.964L93.613 240.313C93.5898 240.418 93.5908 240.526 93.6156 240.631C93.6405 240.736 93.6887 240.833 93.7566 240.916C93.8245 241 93.9104 241.066 94.0077 241.112C94.1051 241.157 94.2115 241.18 94.3189 241.179C96.2503 241.145 99.0342 241.032 101.452 241.032C104.289 241.032 106.733 241.192 110.056 241.192C112.054 241.192 112.621 239.194 111.781 238.974C107.952 238.135 104.828 238.048 101.518 236.01C101.166 235.77 100.752 235.636 100.326 235.624Z" fill="#263238"/>
<path d="M96.7299 224.868H101.625L100.573 233.12L95.7775 232.381L96.7299 224.868Z" fill="#CF6F64"/>
<path d="M98.9809 145.095C98.9809 145.095 103.077 158.788 109.843 176.397C112.048 182.124 112.9 187.639 111.369 192.487C106.62 207.539 102.517 230.176 102.517 230.176L94.3589 229.29C94.3589 229.29 94.0459 206.2 96.9363 194.299C98.4215 188.192 97.9153 185.967 96.3902 183.949C75.611 156.304 81.1921 145.115 81.1921 145.115L98.9809 145.095Z" fill="#1BBA96"/>
<path opacity="0.3" d="M98.9809 145.095C98.9809 145.095 103.077 158.788 109.843 176.397C112.048 182.124 112.9 187.639 111.369 192.487C106.62 207.539 102.517 230.176 102.517 230.176L94.3589 229.29C94.3589 229.29 94.0459 206.2 96.9363 194.299C98.4215 188.192 97.9153 185.967 96.3902 183.949C75.611 156.304 81.1921 145.115 81.1921 145.115L98.9809 145.095Z" fill="black"/>
<path d="M103.929 228.791L103.503 232.041L93.8727 230.409L93.5863 227.439L103.929 228.791Z" fill="#1BBA96"/>
<path opacity="0.1" d="M103.929 228.791L103.503 232.041L93.8727 230.409L93.5863 227.439L103.929 228.791Z" fill="black"/>
<path d="M174.712 62.4308H166.387V63.0968H174.712V62.4308Z" fill="#1BBA96"/>
<path opacity="0.2" d="M174.712 62.4308H166.387V63.0968H174.712V62.4308Z" fill="black"/>
<path d="M150.409 34.9517H195.518C196.72 34.9534 197.873 35.4318 198.723 36.282C199.573 37.1322 200.051 38.2848 200.053 39.4871V56.2304C200.051 57.4327 199.573 58.5853 198.723 59.4355C197.873 60.2857 196.72 60.7641 195.518 60.7658H192.387L193.606 65.6876C191.837 65.5266 190.12 65.0073 188.558 64.1611C186.996 63.315 185.623 62.1597 184.522 60.7658H150.409C149.208 60.7623 148.056 60.2833 147.206 59.4335C146.356 58.5837 145.877 57.4322 145.874 56.2304V39.4871C145.877 38.2853 146.356 37.1337 147.206 36.2839C148.056 35.4341 149.208 34.9552 150.409 34.9517Z" fill="#1BBA96"/>
<path opacity="0.2" d="M150.409 34.9517H195.518C196.72 34.9534 197.873 35.4318 198.723 36.282C199.573 37.1322 200.051 38.2848 200.053 39.4871V56.2304C200.051 57.4327 199.573 58.5853 198.723 59.4355C197.873 60.2857 196.72 60.7641 195.518 60.7658H192.387L193.606 65.6876C191.837 65.5266 190.12 65.0073 188.558 64.1611C186.996 63.315 185.623 62.1597 184.522 60.7658H150.409C149.208 60.7623 148.056 60.2833 147.206 59.4335C146.356 58.5837 145.877 57.4322 145.874 56.2304V39.4871C145.877 38.2853 146.356 37.1337 147.206 36.2839C148.056 35.4341 149.208 34.9552 150.409 34.9517Z" fill="black"/>
<path d="M175.298 11.4352H174.632V16.983H175.298V11.4352Z" fill="#1BBA96"/>
<path opacity="0.1" d="M175.298 11.4352H174.632V16.983H175.298V11.4352Z" fill="#FAFAFA"/>
<path d="M168.431 4.13586H123.323C122.123 4.13761 120.973 4.61419 120.123 5.4615C119.273 6.3088 118.793 7.45798 118.788 8.658V25.4146C118.79 26.6169 119.268 27.7695 120.118 28.6197C120.968 29.4699 122.121 29.9483 123.323 29.95H126.453L125.208 34.8718C126.98 34.7168 128.702 34.2022 130.268 33.3594C131.835 32.5166 133.213 31.3633 134.319 29.97H168.431C169.633 29.9665 170.785 29.4875 171.635 28.6377C172.484 27.7879 172.963 26.6363 172.967 25.4345V8.658C172.96 7.45852 172.479 6.31036 171.63 5.46343C170.78 4.6165 169.631 4.13936 168.431 4.13586Z" fill="#1BBA96"/>
<path opacity="0.1" d="M168.431 4.13586H123.323C122.123 4.13761 120.973 4.61419 120.123 5.4615C119.273 6.3088 118.793 7.45798 118.788 8.658V25.4146C118.79 26.6169 119.268 27.7695 120.118 28.6197C120.968 29.4699 122.121 29.9483 123.323 29.95H126.453L125.208 34.8718C126.98 34.7168 128.702 34.2022 130.268 33.3594C131.835 32.5166 133.213 31.3633 134.319 29.97H168.431C169.633 29.9665 170.785 29.4875 171.635 28.6377C172.484 27.7879 172.963 26.6363 172.967 25.4345V8.658C172.96 7.45852 172.479 6.31036 171.63 5.46343C170.78 4.6165 169.631 4.13936 168.431 4.13586Z" fill="#FAFAFA"/>
</svg>
